<?xml version="1.0" encoding="utf-8"?>
<!-- Generator: Fusion 360, Shaper Origin Export Add-In, Version 1.8.0  -->
<svg xmlns="http://www.w3.org/2000/svg" xmlns:xlink="http://www.w3.org/1999/xlink" xmlns:shaper="http://www.shapertools.com/namespaces/shaper" shaper:fusionaddin="version:1.8.0" width="8.0776453cm" height="1.4526404cm" version="1.1" x="0cm" y="0cm" viewBox="0 0 8.0776453 1.4526404" enable-background="new 0 0 8.0776453 1.4526404" xml:space="preserve"><path d="M-3.6342907,0.7265402 L-3.6342907,0.7265402 -3.6641285,0.7116008 -3.6929509,0.6957863 -3.7207557,0.6790959 -3.7475391,0.6615285 -3.7732953,0.6430835 -3.798016,0.6237611 -3.8216908,0.603563 -3.8443064,0.582493 -3.8658467,0.5605571 -3.886292,0.5377644 -3.9056197,0.5141277 -3.9238035,0.4896635 -3.9408131,0.4643931 -3.9566143,0.4383434 -3.9711682,0.4115469 -3.9844324,0.384042 -3.9963615,0.3558727 -4.0069087,0.3270878 -4.0160272,0.29774 -4.0236724,0.2678848 -4.0298033,0.2375798 -4.034384,0.2068834 -4.0373858,0.1758549 -4.0387882,0.1445525 -4.0385813,0.1130334 -4.0367673,0.0813522 -4.0333621,0.0495605 -4.0283977,0.0177058 -4.021923,-0.0141691 -4.0140052,-0.0460268 -4.0047283,-0.077834 -3.99419,-0.1095607 -3.9824993,-0.1411787 -3.9697738,-0.17266 -3.9561376,-0.2039761 -3.941718,-0.2350964 -3.9110415,-0.2966088 -3.8787402,-0.3568618 -3.8457068,-0.4154047 -3.8291457,-0.4438518 -3.8126476,-0.4716285 -3.79626,-0.4986284 -3.7800129,-0.5247336 -3.7639211,-0.5498176 -3.7479863,-0.5737478 -3.7321997,-0.5963885 -3.7165433,-0.6176036 -3.7009924,-0.6372587 -3.6855174,-0.6552239 -3.6700857,-0.6713766 -3.654664,-0.6856039 -3.6392205,-0.6978067 -3.6237267,-0.7079011 -3.6081587,-0.7158201 -3.5924978,-0.7215138 -3.5767304,-0.7249479 -3.5608471,-0.7261002 -3.5448414,-0.7249579 -3.5287096,-0.7215152 -3.5124497,-0.7157709 -3.4960611,-0.7077261 3.6688397,-0.7077261 3.6688397,-0.7077261 3.6832539,-0.7049725 3.6976555,-0.7002099 3.7120442,-0.6934363 3.7264188,-0.68465 3.7407769,-0.6738505 3.7551148,-0.6610401 3.7694271,-0.6462253 3.7837058,-0.629418 3.7979408,-0.6106373 3.8121188,-0.5899101 3.8262233,-0.5672728 3.8402344,-0.5427728 3.854128,-0.5164702 3.8678753,-0.4884396 3.8814426,-0.4587719 3.8947916,-0.4275734 3.9078793,-0.3949661 3.9206582,-0.361086 3.9330776,-0.3260821 3.9450837,-0.2901134 3.9566206,-0.2533469 3.9676313,-0.2159553 3.9780576,-0.1781159 3.9878416,-0.1400079 3.9969257,-0.1018114 4.0052536,-0.063705 4.0127708,-0.0258639 4.0194255,0.0115418 4.0251694,0.0483494 4.029958,0.0844055 4.033752,0.1195675 4.0365172,0.1537062 4.0382259,0.1867068 4.0388571,0.2184713 4.0383978,0.2489211 4.0368438,0.2779989 4.0342006,0.3056714 4.0304831,0.3319283 4.025715,0.3567813 4.0199278,0.3802619 4.0131599,0.4024192 4.0054553,0.4233171 3.9968623,0.4430313 3.9874325,0.4616467 3.9772197,0.4792553 3.9662787,0.4959537 3.9546647,0.5118407 3.9424317,0.5270149 3.9296316,0.5415715 3.9163128,0.5556001 3.8882921,0.582393 3.8586643,0.607935 3.8276444,0.632613 3.7953809,0.6566877 3.7619686,0.6803197 3.7274599,0.7035929 3.691878,0.7265402 -3.6342907,0.7265402z" transform="matrix(1,0,0,-1,4.0387882,0.7265402)" fill="rgb(0,0,0)" stroke-linecap="round" stroke-linejoin="round" /></svg>