<?xml version="1.0" encoding="utf-8"?>
<!-- Generator: Fusion 360, Shaper Origin Export Add-In, Version 1.8.0  -->
<svg xmlns="http://www.w3.org/2000/svg" xmlns:xlink="http://www.w3.org/1999/xlink" xmlns:shaper="http://www.shapertools.com/namespaces/shaper" shaper:fusionaddin="version:1.8.0" width="15.1940264cm" height="4.3182645cm" version="1.1" x="0cm" y="0cm" viewBox="0 0 15.1940264 4.3182645" enable-background="new 0 0 15.1940264 4.3182645" xml:space="preserve"><path d="M-7.552037,-2.1547265 L-6.6041293,-2.1547265 -6.6041293,-2.1547265 -6.5901884,-2.1575484 -6.5764454,-2.1589175 -6.5628974,-2.1588345 -6.5495373,-2.1573009 -6.5363518,-2.1543195 -6.5233197,-2.1498952 -6.5104078,-2.1440353 -6.4975694,-2.1367501 -6.4847431,-2.128053 -6.4718552,-2.1179612 -6.4588206,-2.1064949 -6.4455461,-2.0936782 -6.4319336,-2.079538 -6.4178837,-2.0641047 -6.4032999,-2.0474116 -6.3880915,-2.0294948 -6.3721773,-2.0103934 -6.3554891,-1.9901492 -6.337974,-1.9688064 -6.3195968,-1.9464121 -6.3003419,-1.9230151 -6.2802122,-1.8986666 -6.2592266,-1.8734192 -6.237418,-1.8473269 -6.2148312,-1.8204443 -6.191521,-1.7928269 -6.1675508,-1.7645302 -6.142991,-1.7356098 -6.1179167,-1.7061208 -6.0924061,-1.6761174 -6.0403917,-1.6147789 -5.9875618,-1.5520005 -5.9344609,-1.4881545 -5.828916,-1.3585128 -5.7246807,-1.2277895 -5.6724774,-1.1623942 -5.6196153,-1.0970998 -5.5655274,-1.0319718 -5.5096016,-0.967068 -5.4807556,-0.9347189 -5.4512203,-0.9024499 -5.4209239,-0.8702712 -5.3897995,-0.8381946 -5.3577856,-0.8062339 -5.3248279,-0.7744056 -5.2908806,-0.7427286 -5.2559072,-0.7112251 -5.2198818,-0.6799208 -5.1827905,-0.6488451 -5.144631,-0.6180311 -5.1054129,-0.5875155 -5.065156,-0.5573378 -5.0238901,-0.5275401 -4.9816533,-0.4981668 -4.938492,-0.4692637 -4.8944597,-0.4408782 -4.8496164,-0.4130585 -4.8040274,-0.3858531 -4.7577628,-0.3593108 -4.7108966,-0.33348 -4.6635057,-0.3084082 -4.6156693,-0.2841416 -4.5674678,-0.2607251 -4.5189823,-0.2382013 -4.4702936,-0.2166105 -4.4214812,-0.1959901 -4.3726229,-0.1763741 -4.3237936,-0.1577928 -4.2750644,-0.1402726 -4.226502,-0.123835 -4.1781681,-0.1084968 -4.1301182,-0.0942694 -4.0824008,-0.0811584 -4.0350567,-0.0691632 -3.9881176,-0.0582762 -3.9416065,-0.0484832 -3.8955373,-0.0397634 -3.8499156,-0.0320897 -3.8047391,-0.0254296 -3.7599984,-0.0197453 -3.7156777,-0.0149947 -3.6717556,-0.0111317 -3.6282059,-0.008107 -3.5849979,-0.0058687 -3.5420974,-0.0043624 -3.4994673,-0.0035324 -3.4570682,-0.0033217 -3.3727979,-0.0045288 -3.2889526,-0.0075291 -3.2052067,-0.0118879 -3.1212641,-0.0172078 -3.0368803,-0.0231467 -2.9518859,-0.0294379 -2.8661966,-0.0358977 -2.7798096,-0.042422 -2.6052544,-0.0555728 -2.4292893,-0.0691828 -2.253388,-0.0840363 -2.1659225,-0.0922129 -2.0789826,-0.10102 -1.992667,-0.1105203 -1.9070188,-0.1207364 -1.8220235,-0.1316496 -1.7376159,-0.1432047 -1.5701103,-0.1678895 -1.4033288,-0.1939244 -1.2358749,-0.2203467 -1.1514687,-0.2334337 -1.0664151,-0.2463326 -0.980604,-0.2590001 -0.8939589,-0.2714243 -0.8064374,-0.2836211 -0.7180282,-0.2956285 -0.6287493,-0.3075011 -0.538647,-0.3193056 -0.4477935,-0.3311151 -0.3562852,-0.3430043 -0.1718,-0.3672949 0.0136203,-0.3926035 0.1985204,-0.419053 0.2902768,-0.4326412 0.3813065,-0.446395 0.4714258,-0.4602357 0.5604718,-0.4740703 0.6483098,-0.4877948 0.7348414,-0.5012971 0.820012,-0.5144593 0.9038185,-0.5271608 0.9863167,-0.539281 1.0676298,-0.550702 1.1479505,-0.5613113 1.2275304,-0.5710026 1.3066625,-0.5796769 1.3856628,-0.587243 1.464852,-0.5936182 1.5445372,-0.5987289 1.624994,-0.6025118 1.7064479,-0.6049137 1.7890569,-0.605893 1.8728915,-0.6054198 1.9579201,-0.6034769 2.0440056,-0.6000582 2.1309243,-0.5951656 2.2183909,-0.5888043 2.3060815,-0.5809791 2.3936575,-0.5716903 2.4807894,-0.5609293 2.5671808,-0.5486747 2.6525921,-0.534888 2.7368638,-0.5195098 2.8199415,-0.5024553 2.9018981,-0.4836103 2.9829413,-0.4628326 3.0633816,-0.4399632 3.143581,-0.4148445 3.183705,-0.4013969 3.2239023,-0.3873373 3.2642101,-0.372654 3.3046594,-0.3573388 3.3452732,-0.3413873 3.3860653,-0.3247995 3.4270383,-0.3075806 3.4681823,-0.2897411 3.5508708,-0.252274 3.6337384,-0.2126145 3.7160898,-0.1711027 3.7567593,-0.1497965 3.7968758,-0.1282197 3.8362474,-0.1064564 3.8746643,-0.0845996 3.9119061,-0.0627487 3.9477486,-0.0410086 3.9819716,-0.0194877 4.0143651,0.0017034 4.0447365,0.022454 4.0729187,0.0426541 4.0861454,0.0525143 4.0987774,0.0621971 4.1108044,0.0716899 4.1222191,0.0809805 4.1330171,0.090057 4.1431976,0.098908 4.152763,0.1075228 4.1617197,0.1158911 4.1700776,0.1240031 4.177851,0.1318499 4.1850585,0.1394232 4.1917238,0.1467156 4.2035488,0.1604319 4.2136255,0.172957 4.2223454,0.1842653 4.2301786,0.194347 4.2376571,0.2032085 4.2453506,0.2108717 4.2538251,0.2173734 4.2635948,0.2227632 4.2750789,0.227103 4.2885821,0.2304649 4.2961527,0.2318042 4.3042866,0.2329302 4.3222485,0.234588 4.342408,0.2355332 4.3646121,0.2358649 4.3886373,0.2356842 4.4142098,0.2350921 4.44102,0.2341884 4.4687376,0.2330695 4.5255712,0.2305454 4.5823463,0.2281541 4.6374783,0.2263646 4.6641842,0.2257936 4.6902936,0.2254697 4.7409053,0.225604 4.789972,0.2267742 4.8384855,0.2288884 4.8875641,0.231782 4.9382227,0.2352477 4.9643912,0.2371248 4.9912097,0.2390604 5.0187199,0.241027 5.0469462,0.2429984 5.0758968,0.2449498 5.1055665,0.2468588 5.1359372,0.2487052 5.1669795,0.2504724 5.2309127,0.2537201 5.296962,0.2565467 5.3646444,0.2589766 5.4334495,0.2611319 5.5724819,0.2655881 5.641849,0.2685337 5.7106382,0.2724078 5.7785771,0.2774992 5.8454754,0.2840057 5.9112344,0.2919912 5.9758566,0.3013443 6.0394573,0.3117327 6.1022608,0.3225868 6.1645495,0.3331727 6.2265924,0.3427046 6.2885697,0.3504655 6.3195463,0.3535073 6.3504936,0.3559322 6.3813747,0.3577244 6.4121337,0.3588939 6.472951,0.3595596 6.5027754,0.3592467 6.5320054,0.3587007 6.5604556,0.3581159 6.5879254,0.357711 6.6142082,0.3577177 6.6391023,0.3583661 6.6624232,0.3598697 6.6840153,0.3624097 6.7037641,0.3661194 6.7216083,0.3710692 6.7375511,0.3772513 6.7516713,0.3845657 6.7641337,0.3928075 6.7751975,0.4016565 6.7852113,0.4106853 6.794584,0.4194032 6.803749,0.4273083 6.8131271,0.4339417 6.8230876,0.4389451 6.8339083,0.4421201 6.8457443,0.4434736 6.8586298,0.4432126 6.8724984,0.4417096 6.8872066,0.4394642 6.9025648,0.4370523 6.9183749,0.4350657 6.9344686,0.434052 6.9507337,0.4344694 6.9671292,0.4366598 6.9836973,0.4408263 7.0005635,0.4470264 7.0179175,0.4551936 7.035988,0.4651663 7.0550209,0.4767138 7.0752621,0.4895549 7.0969433,0.5033733 7.1202665,0.517835 7.1453832,0.5326097 7.1723709,0.5473968 7.201212,0.561948 7.2317844,0.5760804 7.2638614,0.5896799 7.2971148,0.6027034 7.331124,0.6151743 7.3993755,0.6388174 7.4324812,0.6502645 7.4641034,0.6616886 7.479166,0.6674508 7.4936276,0.6732787 7.5074131,0.6791964 7.5204485,0.6852279 7.5326622,0.6913966 7.5439848,0.6977249 7.5543501,0.7042341 7.5636952,0.7109439 7.5719613,0.7178723 7.5790942,0.7250351 7.5850447,0.7324455 7.5897696,0.7401139 7.5932319,0.7480474 7.5954013,0.7562496 7.5962552,0.7647201 7.5957779,0.7734551 7.5939606,0.7824468 7.5908019,0.7916845 7.5863068,0.8011536 7.580487,0.8108368 7.5733609,0.8207135 7.5649528,0.8307604 7.5552928,0.8409517 7.5444168,0.8512595 7.5323653,0.861654 7.5191838,0.8721037 7.5049219,0.8825759 7.4896333,0.8930368 7.4733754,0.9034521 7.456209,0.9137866 7.4381979,0.924005 7.4194086,0.9340718 7.3999104,0.943952 7.3797745,0.9536106 7.337884,0.9721277 7.2943393,0.9893638 7.249757,1.0050832 7.2047578,1.0190835 7.1599561,1.0312026 7.1159499,1.0413269 7.094425,1.0456205 7.0733107,1.0493985 7.0526726,1.0526641 7.0325734,1.0554248 7.0130727,1.0576933 6.9942265,1.0594876 6.9760871,1.0608311 6.9587024,1.0617527 6.9421163,1.062286 6.9263674,1.0624689 6.9114896,1.0623433 6.8975111,1.0619545 6.8844545,1.0613509 6.8723364,1.0605831 6.861167,1.0597039 6.8509502,1.0587674 6.8416833,1.0578287 6.8333568,1.0569434 6.825954,1.056167 6.8194511,1.0555543 6.8138165,1.055159 6.8090104,1.055033 6.8049841,1.0552258 6.8016798,1.0557841 6.7990297,1.0567508 6.796956,1.0581648 6.7953711,1.0600606 6.7941785,1.062468 6.7925488,1.0689145 6.7911662,1.0776498 6.7902679,1.0829001 6.789069,1.0887421 6.7874501,1.0951727 6.7852973,1.102184 6.7825044,1.1097641 6.7789757,1.1178969 6.7746286,1.1265622 6.7693943,1.1357361 6.7632194,1.145391 6.7560657,1.1554961 6.7479113,1.166017 6.7387513,1.1769167 6.7285982,1.188155 6.7174817,1.1996894 6.7054474,1.2114749 6.692555,1.2234649 6.678877,1.2356115 6.6644969,1.2478653 6.6340114,1.2724953 6.6019338,1.296955 6.5691922,1.3208514 6.536771,1.3438096 6.5056756,1.3654845 6.490936,1.3757435 6.4768959,1.3855708 6.4636707,1.3949362 6.45137,1.4038129 6.4400971,1.4121784 6.4299466,1.4200146 6.4210037,1.4273085 6.4133422,1.4340525 6.4070232,1.4402452 6.4020934,1.4458915 6.3985841,1.4510033 6.3965105,1.4555993 6.3958717,1.4597052 6.3966508,1.4633532 6.3988144,1.4665817 6.4023135,1.4694358 6.4070826,1.4719664 6.4130412,1.4742298 6.4200952,1.4762872 6.4281391,1.4782032 6.4370576,1.4800453 6.4467278,1.4818825 6.4678044,1.4858212 6.4903029,1.4905691 6.5131515,1.4966408 6.5353284,1.5044854 6.5458724,1.5091879 6.5559135,1.5144584 6.5653585,1.520324 6.5741242,1.526804 6.5821383,1.5339096 6.5893407,1.5416438 6.5956828,1.5500013 6.6011275,1.558969 6.6056481,1.5685266 6.609227,1.5786478 6.6118553,1.5893005 6.6135313,1.6004477 6.6142598,1.6120483 6.6140517,1.6240575 6.6129233,1.6364271 6.6108957,1.6491063 6.6079946,1.6620418 6.6042496,1.675178 6.5996938,1.6884581 6.5943633,1.7018241 6.5882962,1.7152174 6.5815322,1.7285798 6.5741113,1.7418538 6.5660738,1.7549831 6.5483032,1.7805941 6.5285135,1.8050115 6.5069683,1.8278773 6.4956109,1.838629 6.4838987,1.8488791 6.4718554,1.8585958 6.4595024,1.8677497 6.4468595,1.8763141 6.4339447,1.8842645 6.4207742,1.891579 6.4073627,1.8982373 6.3937238,1.9042214 6.3798693,1.909515 6.36581,1.9141036 6.3515553,1.9179744 6.3371137,1.9211163 6.3224922,1.9235194 6.3076972,1.9251755 6.2927336,1.9260775 6.277606,1.9262197 6.2623177,1.9255972 6.2468716,1.9242063 6.2312699,1.9220441 6.2155142,1.9191082 6.1996057,1.9153972 6.1835453,1.9109098 6.1673335,1.9056455 6.1509704,1.8996038 6.1344563,1.8927848 6.1344563,2.0343857 4.2958709,2.159347 4.2842347,1.9881409 4.2842347,1.9881409 4.2764301,1.9876064 4.267361,1.9871161 4.2570274,1.9866702 4.2454296,1.9862687 4.2325683,1.9859116 4.2184449,1.985599 4.2030613,1.985331 4.1864203,1.9851077 4.1685257,1.9849293 4.1493824,1.9847959 4.1289967,1.984708 4.1073766,1.9846657 4.0845317,1.9846695 4.0604737,1.9847198 4.0352164,1.9848171 4.0087756,1.9849621 3.9811696,1.9851555 3.9524189,1.985398 3.9225465,1.9856905 3.8915776,1.9860338 3.8595403,1.9864291 3.8264647,1.9868772 3.7923833,1.9873794 3.7573305,1.9879367 3.7213425,1.9885504 3.6844572,1.9892215 3.6467137,1.9899512 3.6081525,1.9907406 3.5688151,1.9915907 3.5287441,1.9925027 3.4879827,1.9934773 3.446575,1.9945155 3.361999,1.9967855 3.2753762,1.9993177 3.1870678,2.0021147 3.0974306,2.0051768 3.0068122,2.008501 2.9155457,2.0120811 2.7323038,2.0199645 2.5499107,2.0286933 2.459575,2.0333105 2.3700192,2.0380501 2.2813433,2.0428704 2.1936052,2.0477245 2.1068225,2.0525609 2.0209786,2.0573244 1.936028,2.0619573 1.8519022,2.0664008 1.7685144,2.0705953 1.6857636,2.0744821 1.5217264,2.0811046 1.3588821,2.0858427 1.1964103,2.0883416 1.1151184,2.0886672 1.033727,2.0883471 0.952226,2.0873706 0.8706412,2.0857375 0.7890375,2.0834587 0.7075163,2.080556 0.6262114,2.0770609 0.5452841,2.0730135 0.4649173,2.0684613 0.385308,2.0634579 0.3066606,2.0580609 0.2291802,2.0523312 0.1530664,2.0463311 0.0785065,2.0401234 0.0056701,2.0337695 -0.0652977,2.0273289 -0.1342813,2.0208571 -0.2012023,2.0144047 -0.2660269,2.0080155 -0.328774,2.0017251 -0.3895205,1.9955595 -0.4484018,1.989535 -0.5056113,1.9836576 -0.5613972,1.9779232 -0.6160549,1.9723188 -0.6699172,1.9668233 -0.7767176,1.9560423 -0.8304296,1.9506848 -0.88488,1.9452935 -0.9404658,1.9398227 -0.9975724,1.934224 -1.0565649,1.9284481 -1.1177805,1.9224453 -1.1493191,1.9193433 -1.1815255,1.9161661 -1.2144328,1.9129077 -1.2480713,1.9095622 -1.2824692,1.9061238 -1.3176525,1.9025868 -1.3536451,1.8989457 -1.3904685,1.895195 -1.4281424,1.8913296 -1.4666842,1.8873444 -1.5061096,1.8832345 -1.5464319,1.8789952 -1.5876628,1.874622 -1.6298117,1.8701108 -1.6728861,1.8654575 -1.7168914,1.8606583 -1.7618313,1.8557099 -1.8077072,1.850609 -1.8545189,1.8453526 -1.902264,1.8399383 -1.9509385,1.8343638 -2.0005363,1.8286271 -2.0510496,1.8227266 -2.1024687,1.8166611 -2.1547821,1.8104299 -2.2079765,1.8040323 -2.262037,1.7974684 -2.3169466,1.7907386 -2.3726867,1.7838436 -2.4292371,1.7767848 -2.4865756,1.7695637 -2.5446785,1.7621827 -2.6035203,1.7546444 -2.663074,1.7469519 -2.7233108,1.739109 -2.7842002,1.7311199 -2.8457102,1.7229893 -2.9078072,1.7147225 -3.0336196,1.6978046 -3.1613362,1.6804206 -3.2906311,1.6626349 -3.4211553,1.6445209 -3.5525395,1.6261609 -3.8163232,1.58907 -3.9479044,1.5705391 -4.0787146,1.5521601 -4.208321,1.5340454 -4.3362861,1.5163103 -4.4621704,1.4990725 -4.5241951,1.4906774 -4.585535,1.4824515 -4.646136,1.4744097 -4.705944,1.466567 -4.7649055,1.4589383 -4.8229674,1.4515386 -4.8800774,1.4443825 -4.9361836,1.4374847 -4.9912353,1.4308596 -5.0451822,1.4245215 -5.0979753,1.4184844 -5.1495666,1.4127622 -5.199909,1.4073683 -5.2489568,1.402316 -5.2966655,1.3976181 -5.342992,1.3932873 -5.3878944,1.3893357 -5.4313327,1.385775 -5.4732682,1.3826166 -5.513664,1.3798713 -5.5524849,1.3775494 -5.5896977,1.3756608 -5.6252711,1.3742147 -5.659176,1.3732198 -5.6913854,1.3726839 -5.7218746,1.3726146 -5.750621,1.3730186 -5.7776044,1.3739017 -5.8028069,1.3752694 -5.826213,1.3771264 -5.8478095,1.3794765 -5.8675855,1.382323 -5.8855321,1.3856687 -5.9016422,1.3895155 -5.9159102,1.3938653 -5.9283319,1.3987192 -5.9389044,1.4040782 -5.9476254,1.4099429 -5.9544937,1.4163138 -5.9595085,1.423191 -5.9626694,1.4305747 -5.9639765,1.4384648 -5.9639765,1.4384648 -5.9734999,1.4440631 -5.9825965,1.4490922 -5.9912663,1.4535523 -5.9995098,1.4574437 -6.0073281,1.4607672 -6.0147228,1.4635242 -6.0216964,1.4657166 -6.0282526,1.4673475 -6.0343961,1.4684208 -6.0401331,1.4689416 -6.0454712,1.4689161 -6.0504198,1.4683523 -6.0549902,1.4672594 -6.0591956,1.4656485 -6.0665768,1.4609271 -6.0727205,1.4543192 -6.0778286,1.445994 -6.0821504,1.43616 -6.0859808,1.4250649 -6.0896518,1.4129879 -6.0935182,1.4002278 -6.0979441,1.3870928 -6.1032915,1.3738903 -6.1099091,1.3609181 -6.1181196,1.3484543 -6.1282063,1.3367456 -6.1340279,1.3312407 -6.1404007,1.325998 -6.1473441,1.3210356 -6.1548729,1.316368 -6.1629974,1.3120062 -6.1717238,1.3079575 -6.1810538,1.3042261 -6.1909854,1.3008129 -6.2015129,1.2977162 -6.2126271,1.2949314 -6.2243155,1.2924513 -6.2365627,1.2902665 -6.2626568,1.2867336 -6.2907293,1.2842138 -6.3205611,1.2825591 -6.3519003,1.2815971 -6.3844681,1.2811366 -6.4179644,1.2809719 -6.4520735,1.2808883 -6.5208233,1.280087 -6.5548065,1.2789373 -6.5880986,1.2770141 -6.6203919,1.2741295 -6.6513974,1.2701154 -6.6808509,1.2648291 -6.7085191,1.2581589 -6.7216206,1.2542793 -6.7342046,1.2500274 -6.7462527,1.2453994 -6.7577486,1.2403934 -6.7686791,1.2350101 -6.7790331,1.2292521 -6.7888021,1.2231241 -6.7979801,1.2166326 -6.8065635,1.2097859 -6.8145509,1.2025941 -6.8219434,1.1950686 -6.8287445,1.1872228 -6.83496,1.1790711 -6.8405981,1.1706297 -6.8456691,1.1619157 -6.8501858,1.1529477 -6.8576191,1.1343292 -6.8630455,1.1149431 -6.8666484,1.0949717 -6.8686462,1.0746084 -6.8692917,1.054055 -6.8688722,1.0335186 -6.8661558,0.9933367 -6.8645872,0.9741072 -6.863392,0.9557193 -6.8629604,0.93836 -6.8636731,0.9222013 -6.8658894,0.9073952 -6.8676653,0.9005407 -6.8699371,0.8940709 -6.8727391,0.8879977 -6.8761024,0.8823311 -6.8800542,0.8770791 -6.8846177,0.8722473 -6.8898114,0.8678392 -6.895649,0.8638555 -6.902139,0.8602945 -6.9092847,0.8571519 -6.9170841,0.8544208 -6.9255295,0.8520916 -6.934608,0.8501523 -6.9443012,0.8485883 -6.9545859,0.8473827 -6.9654345,0.8465167 -6.9886926,0.8457194 -7.0137794,0.8460135 -7.0403495,0.8471962 -7.0680176,0.8490507 -7.096368,0.8513509 -7.1533631,0.8563761 -7.1811176,0.8586578 -7.2077942,0.8605108 -7.2329798,0.8617528 -7.2562911,0.8622274 -7.2671349,0.8621364 -7.2773851,0.8618094 -7.287007,0.8612366 -7.2959696,0.8604112 -7.3042464,0.8593291 -7.3118152,0.8579898 -7.3186584,0.8563953 -7.3247626,0.8545508 -7.3301186,0.8524639 -7.3347209,0.8501449 -7.3385681,0.8476061 -7.341662,0.8448618 -7.3440077,0.8419281 -7.345613,0.8388222 -7.3464885,0.8355628 -7.3466467,0.8321689 -7.3461023,0.8286604 -7.3448717,0.8250571 -7.3429727,0.8213791 -7.3404242,0.8176461 -7.3372461,0.8138771 -7.3334591,0.8100908 -7.3241449,0.8025366 -7.3126606,0.7951175 -7.2991938,0.7879546 -7.2839383,0.7811554 -7.2670926,0.7748125 -7.2488583,0.7690029 -7.2294376,0.7637868 -7.2090316,0.7592067 -7.1878386,0.7552859 -7.1660518,0.7520282 -7.1438578,0.749416 -7.0989486,0.7459474 -7.0544041,0.7442985 -7.0113436,0.7435875 -6.9906744,0.7432487 -6.9707219,0.7427245 -6.9515812,0.7418617 -6.9333385,0.7405062 -6.9160713,0.7385052 -6.8998486,0.735711 -6.8847312,0.731983 -6.8707722,0.7271919 -6.858017,0.7212222 -6.8465039,0.7139745 -6.8362645,0.7053652 -6.8273242,0.6953272 -6.819703,0.6838071 -6.8134161,0.6707639 -6.8084745,0.6561669 -6.804886,0.6399944 -6.8026554,0.6222324 -6.8017851,0.6028727 -6.8022763,0.5819113 -6.8041293,0.559347 -7.4643007,-1.803781 -7.4643007,-1.803781 -7.470849,-1.8096594 -7.4771353,-1.8162651 -7.4832194,-1.823576 -7.4892585,-1.8315301 -7.4955562,-1.8400032 -7.5025618,-1.8488085 -7.5107578,-1.8577426 -7.520502,-1.866651 -7.5318703,-1.8754927 -7.5445248,-1.8843904 -7.5577379,-1.8935923 -7.5705333,-1.9033682 -7.5818386,-1.9138977 -7.5866087,-1.919449 -7.5906379,-1.9251583 -7.593832,-1.9309774 -7.5961166,-1.9368434 -7.597439,-1.9426866 -7.5977712,-1.9484371 -7.5971121,-1.9540318 -7.59549,-1.9594203 -7.5929648,-1.9645722 -7.5896319,-1.9694849 -7.5810975,-1.9787395 -7.5712499,-1.9877365 -7.5616419,-1.9972715 -7.5573867,-2.0024938 -7.5536992,-2.0081316 -7.5506855,-2.0142407 -7.5484051,-2.0208454 -7.5468708,-2.0279384 -7.5460523,-2.0354833 -7.5458853,-2.0434208 -7.5462786,-2.0516738 -7.5482902,-2.0687599 -7.5510947,-2.0859636 -7.5537343,-2.1025515 -7.5554868,-2.117976 -7.5559128,-2.1319062 -7.5547899,-2.1441761 -7.552037,-2.1547265z" transform="matrix(1,0,0,-1,7.5977712,2.159347)" fill="rgb(0,0,0)" stroke-linecap="round" stroke-linejoin="round" /><path d="M-0.0776212,0.459347 L-0.0776212,0.759347 3.5644313,0.759347 3.5644313,0.459347 -0.0776212,0.459347z" transform="matrix(1,0,0,-1,7.5977712,2.159347)" fill="rgb(255,255,255)" stroke="rgb(0,0,0)" stroke-width="0.0010cm" stroke-linecap="round" stroke-linejoin="round" /><path d="M-6.6308638,0.459347 L-6.6308638,0.759347 -5.1965976,0.759347 -5.1965976,0.459347 -6.6308638,0.459347z" transform="matrix(1,0,0,-1,7.5977712,2.159347)" fill="rgb(255,255,255)" stroke="rgb(0,0,0)" stroke-width="0.0010cm" stroke-linecap="round" stroke-linejoin="round" /></svg>