<?xml version="1.0" encoding="utf-8"?>
<!-- Generator: Fusion 360, Shaper Origin Export Add-In, Version 1.8.0  -->
<svg xmlns="http://www.w3.org/2000/svg" xmlns:xlink="http://www.w3.org/1999/xlink" xmlns:shaper="http://www.shapertools.com/namespaces/shaper" shaper:fusionaddin="version:1.8.0" width="21.2994853cm" height="3.6497451cm" version="1.1" x="0cm" y="0cm" viewBox="0 0 21.2994853 3.6497451" enable-background="new 0 0 21.2994853 3.6497451" xml:space="preserve"><path d="M5.0592729,1.8248726 L-0.992123,1.8248726 -0.9958941,1.7960767 -5.1938933,1.7960767 -10.4407271,1.1513806 -10.4407271,1.1513806 -10.4655194,1.0775357 -10.4888502,1.0030919 -10.5107096,0.9280492 -10.5310817,0.8524112 -10.549945,0.7761889 -10.5672736,0.699404 -10.5830379,0.6220931 -10.5972059,0.5443106 -10.6097444,0.4661336 -10.6206205,0.3876657 -10.6298034,0.3090415 -10.6372662,0.2304301 -10.6429877,0.1520407 -10.6469556,0.074128 -10.649168,-0.0030053 -10.6496322,-0.0790145 -10.6492133,-0.1164802 -10.6483638,-0.1535206 -10.6470865,-0.1900848 -10.6453846,-0.2261208 -10.6432615,-0.2615763 -10.6407209,-0.2963987 -10.6377664,-0.3305357 -10.6344019,-0.3639352 -10.6306314,-0.3965463 -10.6264589,-0.4283189 -10.6218885,-0.4592044 -10.6169243,-0.4891561 -10.6115704,-0.5181293 -10.6058307,-0.5460819 -10.5997094,-0.5729751 -10.5932104,-0.5987734 -10.5863376,-0.6234454 -10.579095,-0.6469639 -10.5714865,-0.6693056 -10.5635156,-0.690452 -10.555186,-0.7103887 -10.5465014,-0.7291053 -10.5374648,-0.7465949 -10.5280796,-0.7628533 -10.5183485,-0.7778785 -10.5082742,-0.7916703 -10.497859,-0.8042296 -10.4871048,-0.8155584 -10.4760134,-0.8256592 -10.4645861,-0.8345349 -10.4528238,-0.8421877 -10.4407271,-0.8486194 -5.0606717,-1.2587224 -2.4742049,-1.2587224 -1.0033398,-1.8248726 1.114964,-1.8129136 2.5576824,-1.2501783 5.1775229,-1.2501783 10.3838302,-0.7495718 10.3838302,-0.7495718 10.4026841,-0.7421678 10.4209575,-0.7329866 10.4386488,-0.7220263 10.4557548,-0.7092849 10.4722705,-0.6947617 10.4881884,-0.678458 10.5034983,-0.6603781 10.5181868,-0.6405307 10.5322367,-0.6189303 10.5456266,-0.5955979 10.5583312,-0.5705617 10.5703214,-0.543858 10.5815657,-0.5155301 10.5920312,-0.4856283 10.6016859,-0.4542084 10.6104994,-0.4213318 10.6184446,-0.3870646 10.6254991,-0.3514772 10.6316466,-0.3146436 10.6368781,-0.2766411 10.6411939,-0.2375495 10.6446048,-0.197451 10.647134,-0.1564292 10.6488172,-0.114569 10.6497034,-0.0719564 10.6498531,-0.0286777 10.6493355,0.0151798 10.6482264,0.0595285 10.6445577,0.1493477 10.6395069,0.240074 10.6276817,0.4214291 10.6218048,0.5106603 10.6162029,0.5980112 10.613464,0.6407715 10.6107063,0.6828122 10.6078634,0.7240532 10.604855,0.7644166 10.6015893,0.8038271 10.5979664,0.8422122 10.59388,0.8795029 10.5892202,0.9156338 10.5838759,0.950544 10.5777373,0.984177 10.5706987,1.0164813 10.5626607,1.0474113 10.5535332,1.0769275 10.5432377,1.1049969 10.5317086,1.1315933 10.5188944,1.156697 10.5047554,1.1802943 10.4892625,1.2023761 10.472395,1.2229372 10.4541397,1.2419753 10.4344889,1.2594905 10.4134395,1.2754842 10.3909907,1.2899583 10.3671434,1.3029147 5.0592729,1.8248726z" transform="matrix(1,0,0,-1,10.6496322,1.8248726)" fill="rgb(0,0,0)" stroke-linecap="round" stroke-linejoin="round" /></svg>