<?xml version="1.0" encoding="UTF-8" standalone="no"?>
<!-- Generator: Fusion 360, Shaper Origin Export Add-In, Version 1.8.0  -->

<svg
   shaper:fusionaddin="version:1.8.0"
   width="3cm"
   height="5cm"
   version="1.1"
   x="0cm"
   y="0cm"
   viewBox="0 0 3 5"
   enable-background="new 0 0 3 5"
   xml:space="preserve"
   id="svg1"
   sodipodi:docname="backFrame.svg"
   inkscape:version="1.4 (e7c3feb1, 2024-10-09)"
   xmlns:inkscape="http://www.inkscape.org/namespaces/inkscape"
   xmlns:sodipodi="http://sodipodi.sourceforge.net/DTD/sodipodi-0.dtd"
   xmlns="http://www.w3.org/2000/svg"
   xmlns:svg="http://www.w3.org/2000/svg"
   xmlns:shaper="http://www.shapertools.com/namespaces/shaper"><defs
     id="defs1" /><sodipodi:namedview
     id="namedview1"
     pagecolor="#ffffff"
     bordercolor="#000000"
     borderopacity="0.25"
     inkscape:showpageshadow="2"
     inkscape:pageopacity="0.0"
     inkscape:pagecheckerboard="0"
     inkscape:deskcolor="#d1d1d1"
     inkscape:document-units="cm"
     inkscape:zoom="1.5565777"
     inkscape:cx="-33.085402"
     inkscape:cy="106.32299"
     inkscape:window-width="1464"
     inkscape:window-height="832"
     inkscape:window-x="0"
     inkscape:window-y="37"
     inkscape:window-maximized="0"
     inkscape:current-layer="svg1" /><path
     d="M-2.7,2.05 L-2.6,2.05 -2.6,2.2 -2.35,2.2 A2.2,2.2 90 0,0 -0.15,0.0000006 L-0.15,-2 A0.2,0.2 0 0,0 -0.35,-2.2 L-2.6,-2.2 -2.6,-2.05 -2.7,-2.05 -2.7,-2.2000001 -2.85,-2.2000001 -2.85,-2.5 -0.35,-2.5 A0.5,0.5 270 0,1 0.15,-2 L0.15,-0 A2.5,2.5 0 0,1 -2.35,2.5 L-2.85,2.5 -2.85,2.2 -2.7,2.2 -2.7,2.05z"
     transform="matrix(1,0,0,-1,2.85,2.5)"
     fill="rgb(0,0,0)"
     stroke-linecap="round"
     stroke-linejoin="round"
     id="path1"
     style="fill:none;stroke:#ff0000;stroke-opacity:1;stroke-width:0.001;stroke-dasharray:none" /></svg>
