<?xml version="1.0" encoding="UTF-8" standalone="no"?>
<!-- Generator: Fusion 360, Shaper Origin Export Add-In, Version 1.8.0  -->

<svg
   shaper:fusionaddin="version:1.8.0"
   width="3.5cm"
   height="3.5cm"
   version="1.1"
   x="0cm"
   y="0cm"
   viewBox="0 0 3.5 3.5"
   enable-background="new 0 0 3.5 3.5"
   xml:space="preserve"
   id="svg12"
   sodipodi:docname="engineFrontPanel.svg"
   inkscape:version="1.4 (e7c3feb1, 2024-10-09)"
   xmlns:inkscape="http://www.inkscape.org/namespaces/inkscape"
   xmlns:sodipodi="http://sodipodi.sourceforge.net/DTD/sodipodi-0.dtd"
   xmlns="http://www.w3.org/2000/svg"
   xmlns:svg="http://www.w3.org/2000/svg"
   xmlns:shaper="http://www.shapertools.com/namespaces/shaper"><defs
     id="defs12" /><sodipodi:namedview
     id="namedview12"
     pagecolor="#ffffff"
     bordercolor="#000000"
     borderopacity="0.25"
     inkscape:showpageshadow="2"
     inkscape:pageopacity="0.0"
     inkscape:pagecheckerboard="0"
     inkscape:deskcolor="#d1d1d1"
     inkscape:document-units="cm"
     inkscape:zoom="0.29334"
     inkscape:cx="271.01657"
     inkscape:cy="-11.931547"
     inkscape:window-width="1472"
     inkscape:window-height="920"
     inkscape:window-x="0"
     inkscape:window-y="36"
     inkscape:window-maximized="0"
     inkscape:current-layer="svg12" /><path
     d="M-1.2864745,-1.4265848 a1.75,1.75 0 1,1 3.5,0 a1.75,1.75 0 1,1 -3.5,0z"
     transform="matrix(1,0,0,-1,1.2864745,0.3234152)"
     fill="rgb(0,0,0)"
     stroke-linecap="round"
     stroke-linejoin="round"
     id="path1"
     style="fill:none;stroke:#ff0000;stroke-opacity:1;stroke-width:0.001;stroke-dasharray:none" /><path
     d="M-0.4513372,-0.4225796 L-0.6276727,-0.1798745 -0.3849676,-0.0035389 -0.2086321,-0.246244 -0.4513372,-0.4225796z"
     transform="matrix(1,0,0,-1,1.2864745,0.3234152)"
     fill="rgb(255,255,255)"
     stroke="rgb(0,0,0)"
     stroke-width="0.0010cm"
     stroke-linecap="round"
     stroke-linejoin="round"
     id="path2"
     style="fill:none;stroke:#ff0000;stroke-opacity:1;stroke-width:0.001;stroke-dasharray:none" /><path
     d="M0.6135255,-2.7765848 L0.6135255,-3.0765848 0.3135255,-3.0765848 0.3135255,-2.7765848 0.6135255,-2.7765848z"
     transform="matrix(1,0,0,-1,1.2864745,0.3234152)"
     fill="rgb(255,255,255)"
     stroke="rgb(0,0,0)"
     stroke-width="0.0010cm"
     stroke-linecap="round"
     stroke-linejoin="round"
     id="path3"
     style="fill:none;stroke:#ff0000;stroke-opacity:1;stroke-width:0.001;stroke-dasharray:none" /><path
     d="M0.3135255,-0.0765848 L0.3135255,0.2234152 0.6135255,0.2234152 0.6135255,-0.0765848 0.3135255,-0.0765848z"
     transform="matrix(1,0,0,-1,1.2864745,0.3234152)"
     fill="rgb(255,255,255)"
     stroke="rgb(0,0,0)"
     stroke-width="0.0010cm"
     stroke-linecap="round"
     stroke-linejoin="round"
     id="path4"
     style="fill:none;stroke:#ff0000;stroke-opacity:1;stroke-width:0.001;stroke-dasharray:none" /><path
     d="M-0.2086321,-2.6069255 L-0.3849676,-2.8496306 -0.6276727,-2.673295 -0.4513372,-2.4305899 -0.2086321,-2.6069255z"
     transform="matrix(1,0,0,-1,1.2864745,0.3234152)"
     fill="rgb(255,255,255)"
     stroke="rgb(0,0,0)"
     stroke-width="0.0010cm"
     stroke-linecap="round"
     stroke-linejoin="round"
     id="path5"
     style="fill:none;stroke:#ff0000;stroke-opacity:1;stroke-width:0.001;stroke-dasharray:none" /><path
     d="M1.135683,-0.246244 L1.3120186,-0.0035389 1.5547237,-0.1798745 1.3783881,-0.4225796 1.135683,-0.246244z"
     transform="matrix(1,0,0,-1,1.2864745,0.3234152)"
     fill="rgb(255,255,255)"
     stroke="rgb(0,0,0)"
     stroke-width="0.0010cm"
     stroke-linecap="round"
     stroke-linejoin="round"
     id="path6"
     style="fill:none;stroke:#ff0000;stroke-opacity:1;stroke-width:0.001;stroke-dasharray:none" /><path
     d="M1.7938044,-1.7010992 L2.0791213,-1.7938043 1.9864162,-2.0791213 1.7010993,-1.9864162 1.7938044,-1.7010992z"
     transform="matrix(1,0,0,-1,1.2864745,0.3234152)"
     fill="rgb(255,255,255)"
     stroke="rgb(0,0,0)"
     stroke-width="0.0010cm"
     stroke-linecap="round"
     stroke-linejoin="round"
     id="path7"
     style="fill:none;stroke:#ff0000;stroke-opacity:1;stroke-width:0.001;stroke-dasharray:none" /><path
     d="M-0.8667534,-1.1520703 L-1.1520703,-1.0593652 -1.0593652,-0.7740482 -0.7740483,-0.8667533 -0.8667534,-1.1520703z"
     transform="matrix(1,0,0,-1,1.2864745,0.3234152)"
     fill="rgb(255,255,255)"
     stroke="rgb(0,0,0)"
     stroke-width="0.0010cm"
     stroke-linecap="round"
     stroke-linejoin="round"
     id="path8"
     style="fill:none;stroke:#ff0000;stroke-opacity:1;stroke-width:0.001;stroke-dasharray:none" /><path
     d="M-1.1520703,-1.7938043 L-0.8667534,-1.7010992 -0.7740483,-1.9864162 -1.0593652,-2.0791213 -1.1520703,-1.7938043z"
     transform="matrix(1,0,0,-1,1.2864745,0.3234152)"
     fill="rgb(255,255,255)"
     stroke="rgb(0,0,0)"
     stroke-width="0.0010cm"
     stroke-linecap="round"
     stroke-linejoin="round"
     id="path9"
     style="fill:none;stroke:#ff0000;stroke-opacity:1;stroke-width:0.001;stroke-dasharray:none" /><path
     d="M1.3783881,-2.4305899 L1.5547237,-2.673295 1.3120186,-2.8496306 1.135683,-2.6069255 1.3783881,-2.4305899z"
     transform="matrix(1,0,0,-1,1.2864745,0.3234152)"
     fill="rgb(255,255,255)"
     stroke="rgb(0,0,0)"
     stroke-width="0.0010cm"
     stroke-linecap="round"
     stroke-linejoin="round"
     id="path10"
     style="fill:none;stroke:#ff0000;stroke-opacity:1;stroke-width:0.001;stroke-dasharray:none" /><path
     d="M-0.7864745,-1.4265848 a1.25,1.25 0 1,1 2.5,0 a1.25,1.25 0 1,1 -2.5,0z"
     transform="matrix(1,0,0,-1,1.2864745,0.3234152)"
     fill="rgb(255,255,255)"
     stroke="rgb(0,0,0)"
     stroke-width="0.0010cm"
     stroke-linecap="round"
     stroke-linejoin="round"
     id="path11"
     style="fill:none;stroke:#ff0000;stroke-opacity:1;stroke-width:0.001;stroke-dasharray:none" /><path
     d="M1.7010993,-0.8667533 L1.9864162,-0.7740482 2.0791213,-1.0593652 1.7938044,-1.1520703 1.7010993,-0.8667533z"
     transform="matrix(1,0,0,-1,1.2864745,0.3234152)"
     fill="rgb(255,255,255)"
     stroke="rgb(0,0,0)"
     stroke-width="0.0010cm"
     stroke-linecap="round"
     stroke-linejoin="round"
     id="path12"
     style="fill:none;stroke:#ff0000;stroke-opacity:1;stroke-width:0.001;stroke-dasharray:none" /></svg>
