<?xml version="1.0" encoding="UTF-8" standalone="no"?>
<!-- Generator: Fusion 360, Shaper Origin Export Add-In, Version 1.8.0  -->

<svg
   shaper:fusionaddin="version:1.8.0"
   width="3.4825495cm"
   height="3.5017323cm"
   version="1.1"
   x="0cm"
   y="0cm"
   viewBox="0 0 3.4825495 3.5017323"
   enable-background="new 0 0 3.4825495 3.5017323"
   xml:space="preserve"
   id="svg2"
   sodipodi:docname="engineFan.svg"
   inkscape:version="1.4 (e7c3feb1, 2024-10-09)"
   xmlns:inkscape="http://www.inkscape.org/namespaces/inkscape"
   xmlns:sodipodi="http://sodipodi.sourceforge.net/DTD/sodipodi-0.dtd"
   xmlns="http://www.w3.org/2000/svg"
   xmlns:svg="http://www.w3.org/2000/svg"
   xmlns:shaper="http://www.shapertools.com/namespaces/shaper"><defs
     id="defs2" /><sodipodi:namedview
     id="namedview2"
     pagecolor="#ffffff"
     bordercolor="#000000"
     borderopacity="0.25"
     inkscape:showpageshadow="2"
     inkscape:pageopacity="0.0"
     inkscape:pagecheckerboard="0"
     inkscape:deskcolor="#d1d1d1"
     inkscape:document-units="cm"
     inkscape:zoom="0.19645038"
     inkscape:cx="63.629298"
     inkscape:cy="66.17447"
     inkscape:window-width="1344"
     inkscape:window-height="731"
     inkscape:window-x="0"
     inkscape:window-y="37"
     inkscape:window-maximized="0"
     inkscape:current-layer="svg2" /><path
     d="M-0.6065715,-0.6204346 L-0.5252241,-0.8031437 0.6436911,-0.2827091 -0.2124863,-1.2335904 -0.0638573,-1.3674165 0.79232,-0.4165352 0.3969214,-1.6334472 0.5871327,-1.6952506 0.9825313,-0.4783386 1.1162794,-1.7508662 1.3151837,-1.7299605 1.1814357,-0.4574329 1.8212042,-1.5655445 1.9944093,-1.4655445 1.3546408,-0.3574329 2.389808,-1.1095259 2.507365,-0.9477225 1.4721978,-0.1956295 2.7237739,-0.4616602 2.7653562,-0.2660307 1.5137802,-0 2.7653562,0.2660307 2.7237739,0.4616602 1.4721978,0.1956295 2.507365,0.9477225 2.389808,1.1095259 1.3546408,0.3574329 1.9944093,1.4655445 1.8212042,1.5655445 1.1814357,0.4574329 1.3151837,1.7299605 1.1162794,1.7508662 0.9825313,0.4783386 0.5871327,1.6952506 0.3969214,1.6334472 0.79232,0.4165352 -0.0638573,1.3674165 -0.2124863,1.2335904 0.6436911,0.2827091 -0.5252241,0.8031437 -0.6065715,0.6204346 0.5623437,0.1 -0.7171933,0.1 -0.7171933,-0.1 0.5623437,-0.1 -0.6065715,-0.6204346z"
     transform="matrix(1,0,0,-1,0.7171933,1.7508662)"
     fill="rgb(0,0,0)"
     stroke-linecap="round"
     stroke-linejoin="round"
     id="path1"
     style="fill:none;stroke:#ff0000;stroke-opacity:1;stroke-width:0.001;stroke-dasharray:none" /><path
     d="M1.1828067,0.15 L1.1828067,-0.15 0.8828067,-0.15 0.8828067,0.15 1.1828067,0.15z"
     transform="matrix(1,0,0,-1,0.7171933,1.7508662)"
     fill="rgb(255,255,255)"
     stroke="rgb(0,0,0)"
     stroke-width="0.0010cm"
     stroke-linecap="round"
     stroke-linejoin="round"
     id="path2"
     style="fill:none;stroke:#ff0000;stroke-opacity:1;stroke-width:0.001;stroke-dasharray:none" /></svg>
