<?xml version="1.0" encoding="UTF-8" standalone="no"?>
<!-- Generator: Fusion 360, Shaper Origin Export Add-In, Version 1.8.0  -->

<svg
   shaper:fusionaddin="version:1.8.0"
   width="4.3976268cm"
   height="2.9009379cm"
   version="1.1"
   x="0cm"
   y="0cm"
   viewBox="0 0 4.3976268 2.9009379"
   enable-background="new 0 0 4.3976268 2.9009379"
   xml:space="preserve"
   id="svg1"
   sodipodi:docname="engineWingHolder.svg"
   inkscape:version="1.4 (e7c3feb1, 2024-10-09)"
   xmlns:inkscape="http://www.inkscape.org/namespaces/inkscape"
   xmlns:sodipodi="http://sodipodi.sourceforge.net/DTD/sodipodi-0.dtd"
   xmlns="http://www.w3.org/2000/svg"
   xmlns:svg="http://www.w3.org/2000/svg"
   xmlns:shaper="http://www.shapertools.com/namespaces/shaper"><defs
     id="defs1" /><sodipodi:namedview
     id="namedview1"
     pagecolor="#ffffff"
     bordercolor="#000000"
     borderopacity="0.25"
     inkscape:showpageshadow="2"
     inkscape:pageopacity="0.0"
     inkscape:pagecheckerboard="0"
     inkscape:deskcolor="#d1d1d1"
     inkscape:document-units="cm"
     inkscape:zoom="0.96729598"
     inkscape:cx="56.34263"
     inkscape:cy="66.163823"
     inkscape:window-width="1312"
     inkscape:window-height="613"
     inkscape:window-x="0"
     inkscape:window-y="37"
     inkscape:window-maximized="0"
     inkscape:current-layer="svg1" /><path
     d="M0.743253,-1.115845 L0.7953474,-1.4112873 0.9430686,-1.3852401 0.9430686,-1.3852401 0.9397145,-1.3320591 0.9365186,-1.2808089 0.9334725,-1.231386 0.9305689,-1.1836943 0.9278007,-1.1376442 0.9251612,-1.0931522 0.9226446,-1.0501404 0.9202449,-1.0085361 0.917957,-0.9682711 0.9157759,-0.9292817 0.9136968,-0.8915081 0.9117155,-0.854894 0.9098277,-0.8193869 0.9080297,-0.7849372 0.9063179,-0.7514982 0.9046887,-0.7190258 0.9031391,-0.6874788 0.901666,-0.656818 0.9002665,-0.6270064 0.8989379,-0.5980092 0.8976778,-0.5697933 0.8964837,-0.5423274 0.8953533,-0.5155819 0.8942845,-0.4895288 0.8932753,-0.4641413 0.8923237,-0.4393943 0.8905862,-0.3917264 0.8890585,-0.3463468 0.8877286,-0.3030937 0.8865854,-0.2618203 0.8856191,-0.222393 0.8848208,-0.1846899 0.8841823,-0.1485997 0.8836962,-0.1140202 0.8833561,-0.080858 0.8831558,-0.0490268 0.8830898,-0.0184475 0.8831533,0.010953 0.8833417,0.0392423 0.8836509,0.066483 0.8840774,0.0927328 0.8846177,0.1180455 0.8852689,0.1424712 0.8860283,0.1660563 0.8868935,0.188844 0.8878624,0.2108749 0.888933,0.2321866 0.8901038,0.2528145 0.8913733,0.2727916 0.8942034,0.3109154 0.8974159,0.3467837 0.9010057,0.3805959 0.9049706,0.412529 0.9093107,0.4427406 0.9140283,0.4713716 0.9191279,0.4985482 0.9246162,0.524384 0.9305021,0.5489813 0.9367963,0.5724331 0.943512,0.5948235 0.9506647,0.616229 0.958272,0.6367197 0.9663543,0.6563596 0.9749345,0.6752076 0.9840386,0.6933177 0.9936957,0.71074 1.0039383,0.727521 1.014803,0.7437036 1.0263304,0.7593281 1.0385662,0.7744323 1.0515611,0.7890515 1.0653724,0.8032193 1.0800638,0.8169675 1.0957071,0.8303264 1.1123832,0.8433254 1.1301832,0.8559926 1.1492102,0.8683557 1.1695815,0.8804419 1.1914305,0.8922781 1.2149098,0.9038916 1.2401949,0.91531 1.2674879,0.9265617 1.2970236,0.9376765 1.3127162,0.9431923 1.3290755,0.9486859 1.3461431,0.9541616 1.3639644,0.9596239 1.3825884,0.9650775 1.402069,0.9705275 1.4224647,0.9759792 1.4438397,0.9814382 1.4662642,0.9869105 1.4898157,0.9924025 1.5145792,0.9979213 1.5406488,1.0034742 1.5681284,1.0090696 1.5971335,1.0147162 1.6277926,1.0204238 1.6602489,1.0262031 1.6946631,1.032066 1.7312152,1.0380256 1.7503556,1.0410462 1.7701086,1.0440966 1.7905038,1.0471789 1.8115728,1.0502954 1.8333492,1.0534485 1.8558689,1.0566407 1.8791702,1.0598746 1.9032943,1.0631532 1.9282852,1.0664796 1.95419,1.069857 1.9810595,1.073289 2.0089481,1.0767793 0.5089481,1.0767793 0.5089481,1.3767793 -0.9910519,1.3767793 -0.9910519,1.0767793 -2.3886786,1.0767793 -2.3886786,1.0767793 -2.3440694,1.0693525 -2.3010656,1.0621283 -2.2595809,1.0550952 -2.2195353,1.0482424 -2.1808542,1.04156 -2.1434682,1.0350387 -2.1073122,1.0286698 -2.0723258,1.0224451 -2.0384522,1.0163572 -2.0056382,1.0103987 -1.973834,1.0045631 -1.942993,0.9988439 -1.9130711,0.9932354 -1.8840271,0.9877319 -1.8558222,0.9823282 -1.8284196,0.9770193 -1.8017848,0.9718004 -1.7758854,0.9666673 -1.7506905,0.9616156 -1.7261709,0.9566415 -1.7022992,0.9517411 -1.6790494,0.9469109 -1.6343176,0.9374475 -1.591793,0.9282262 -1.5513109,0.9192241 -1.5127225,0.9104204 -1.4758929,0.9017962 -1.4406997,0.8933339 -1.4070314,0.8850178 -1.3747861,0.8768331 -1.343871,0.8687661 -1.3142007,0.8608044 -1.285697,0.8529362 -1.2582879,0.8451506 -1.2319073,0.8374374 -1.2064937,0.829787 -1.1819909,0.8221904 -1.1583462,0.8146392 -1.1355112,0.8071252 -1.1134407,0.7996408 -1.0920928,0.7921787 -1.0714284,0.7847321 -1.051411,0.7772941 -1.0131833,0.762419 -0.9771625,0.7475047 -0.9431315,0.7325053 -0.9108984,0.7173774 -0.8802929,0.7020787 -0.8511629,0.6865681 -0.8233725,0.6708053 -0.796799,0.6547496 -0.7713318,0.6383605 -0.74687,0.6215965 -0.7233217,0.6044151 -0.7006027,0.5867723 -0.678635,0.5686224 -0.6573464,0.5499172 -0.6366696,0.5306061 -0.6165413,0.5106351 -0.5969018,0.4899466 -0.5776939,0.4684789 -0.5588633,0.4461653 -0.5403569,0.4229337 -0.5221234,0.3987057 -0.504112,0.3733957 -0.4862723,0.3469097 -0.4685537,0.3191447 -0.450905,0.2899867 -0.4332736,0.2593093 -0.4156052,0.2269722 -0.3978428,0.1928185 -0.3799262,0.1566724 -0.3617912,0.1183361 -0.3526204,0.0982779 -0.3433684,0.0775862 -0.3340257,0.0562282 -0.3245822,0.034169 -0.315027,0.0113714 -0.3053491,-0.0122046 -0.2955366,-0.0366016 -0.2855767,-0.0618657 -0.2754563,-0.088046 -0.2651611,-0.1151956 -0.2546759,-0.1433716 -0.2439845,-0.1726356 -0.2330697,-0.2030541 -0.2219126,-0.2346993 -0.2104933,-0.2676492 -0.1987902,-0.3019885 -0.1867798,-0.3378096 -0.1744368,-0.3752128 -0.1617336,-0.4143079 -0.1486403,-0.4552149 -0.1351239,-0.4980654 -0.1211487,-0.5430038 -0.1066754,-0.5901893 -0.0992385,-0.614679 -0.0916605,-0.6397976 -0.0839352,-0.6655703 -0.0760562,-0.6920231 -0.0680168,-0.7191837 -0.0598097,-0.7470813 -0.0514274,-0.7757466 -0.0428621,-0.8052122 -0.0341052,-0.8355124 -0.025148,-0.8666836 -0.015981,-0.8987642 -0.0065942,-0.931795 0.0030228,-0.9658193 0.0128812,-1.000883 0.0229929,-1.0370348 0.0333705,-1.0743267 0.0440275,-1.1128139 0.0549781,-1.1525552 0.0662376,-1.1936134 0.0778223,-1.2360554 0.0897494,-1.2799529 0.1020377,-1.3253826 0.114707,-1.3724266 0.1277786,-1.421173 0.1412755,-1.4717164 0.1552224,-1.5241586 0.3029435,-1.4981114 0.2508491,-1.2026691 0.743253,-1.115845z"
     transform="matrix(1,0,0,-1,2.3886786,1.3767793)"
     fill="rgb(0,0,0)"
     stroke-linecap="round"
     stroke-linejoin="round"
     id="path1"
     style="fill:none;stroke:#ff0000;stroke-opacity:1;stroke-width:0.001;stroke-dasharray:none" /></svg>
