<?xml version="1.0" encoding="UTF-8" standalone="no"?>
<!-- Generator: Fusion 360, Shaper Origin Export Add-In, Version 1.8.0  -->

<svg
   shaper:fusionaddin="version:1.8.0"
   width="3.5cm"
   height="3.5cm"
   version="1.1"
   x="0cm"
   y="0cm"
   viewBox="0 0 3.5 3.5"
   enable-background="new 0 0 3.5 3.5"
   xml:space="preserve"
   id="svg16"
   sodipodi:docname="engineFrontPanel.svg"
   inkscape:version="1.4 (e7c3feb1, 2024-10-09)"
   xmlns:inkscape="http://www.inkscape.org/namespaces/inkscape"
   xmlns:sodipodi="http://sodipodi.sourceforge.net/DTD/sodipodi-0.dtd"
   xmlns="http://www.w3.org/2000/svg"
   xmlns:svg="http://www.w3.org/2000/svg"
   xmlns:shaper="http://www.shapertools.com/namespaces/shaper"><defs
     id="defs16" /><sodipodi:namedview
     id="namedview16"
     pagecolor="#ffffff"
     bordercolor="#000000"
     borderopacity="0.25"
     inkscape:showpageshadow="2"
     inkscape:pageopacity="0.0"
     inkscape:pagecheckerboard="0"
     inkscape:deskcolor="#d1d1d1"
     inkscape:document-units="cm"
     inkscape:zoom="0.59821482"
     inkscape:cx="256.59679"
     inkscape:cy="249.0744"
     inkscape:window-width="1440"
     inkscape:window-height="603"
     inkscape:window-x="0"
     inkscape:window-y="37"
     inkscape:window-maximized="0"
     inkscape:current-layer="svg16" /><path
     d="M-1.75,0.95 a1.75,1.75 0 1,1 3.5,0 a1.75,1.75 0 1,1 -3.5,0z"
     transform="matrix(1,0,0,-1,1.75,2.7)"
     fill="rgb(0,0,0)"
     stroke-linecap="round"
     stroke-linejoin="round"
     id="path1"
     style="fill:none;stroke:#ff0000;stroke-opacity:1;stroke-width:0.001;stroke-dasharray:none" /><path
     d="M-1.1803407,1.6221576 L-1.4230458,1.7984931 -1.2467103,2.0411982 -1.0040052,1.8648627 -1.1803407,1.6221576z"
     transform="matrix(1,0,0,-1,1.75,2.7)"
     fill="rgb(255,255,255)"
     stroke="rgb(0,0,0)"
     stroke-width="0.0010cm"
     stroke-linecap="round"
     stroke-linejoin="round"
     id="path2"
     style="fill:none;stroke:#ff0000;stroke-opacity:1;stroke-width:0.001;stroke-dasharray:none" /><path
     d="M1.35,1.1 L1.65,1.1 1.65,0.8 1.35,0.8 1.35,1.1z"
     transform="matrix(1,0,0,-1,1.75,2.7)"
     fill="rgb(255,255,255)"
     stroke="rgb(0,0,0)"
     stroke-width="0.0010cm"
     stroke-linecap="round"
     stroke-linejoin="round"
     id="path3"
     style="fill:none;stroke:#ff0000;stroke-opacity:1;stroke-width:0.001;stroke-dasharray:none" /><path
     d="M1.1803407,0.2778424 L1.4230458,0.1015069 1.2467103,-0.1411982 1.0040052,0.0351373 1.1803407,0.2778424z"
     transform="matrix(1,0,0,-1,1.75,2.7)"
     fill="rgb(255,255,255)"
     stroke="rgb(0,0,0)"
     stroke-width="0.0010cm"
     stroke-linecap="round"
     stroke-linejoin="round"
     id="path4"
     style="fill:none;stroke:#ff0000;stroke-opacity:1;stroke-width:0.001;stroke-dasharray:none" /><path
     d="M0.5598314,-0.2875738 L0.6525365,-0.5728907 0.3672196,-0.6655958 0.2745145,-0.3802789 0.5598314,-0.2875738z"
     transform="matrix(1,0,0,-1,1.75,2.7)"
     fill="rgb(255,255,255)"
     stroke="rgb(0,0,0)"
     stroke-width="0.0010cm"
     stroke-linecap="round"
     stroke-linejoin="round"
     id="path5"
     style="fill:none;stroke:#ff0000;stroke-opacity:1;stroke-width:0.001;stroke-dasharray:none" /><path
     d="M-1.65,1.1 L-1.35,1.1 -1.35,0.8 -1.65,0.8 -1.65,1.1z"
     transform="matrix(1,0,0,-1,1.75,2.7)"
     fill="rgb(255,255,255)"
     stroke="rgb(0,0,0)"
     stroke-width="0.0010cm"
     stroke-linecap="round"
     stroke-linejoin="round"
     id="path6"
     style="fill:none;stroke:#ff0000;stroke-opacity:1;stroke-width:0.001;stroke-dasharray:none" /><path
     d="M1.0040052,1.8648627 L1.2467103,2.0411982 1.4230458,1.7984931 1.1803407,1.6221576 1.0040052,1.8648627z"
     transform="matrix(1,0,0,-1,1.75,2.7)"
     fill="rgb(255,255,255)"
     stroke="rgb(0,0,0)"
     stroke-width="0.0010cm"
     stroke-linecap="round"
     stroke-linejoin="round"
     id="path7"
     style="fill:none;stroke:#ff0000;stroke-opacity:1;stroke-width:0.001;stroke-dasharray:none" /><path
     d="M-1.0040052,0.0351373 L-1.2467103,-0.1411982 -1.4230458,0.1015069 -1.1803407,0.2778424 -1.0040052,0.0351373z"
     transform="matrix(1,0,0,-1,1.75,2.7)"
     fill="rgb(255,255,255)"
     stroke="rgb(0,0,0)"
     stroke-width="0.0010cm"
     stroke-linecap="round"
     stroke-linejoin="round"
     id="path8"
     style="fill:none;stroke:#ff0000;stroke-opacity:1;stroke-width:0.001;stroke-dasharray:none" /><path
     d="M-0.1,0.6854249 L-0.1,-0.2959936 A1.25,1.25 265.4114342 0,0 -1.2459936,0.85 L-0.2645751,0.85 A0.2828427,0.2828427 200.7048111 0,1 -0.1,0.6854249z"
     transform="matrix(1,0,0,-1,1.75,2.7)"
     fill="rgb(255,255,255)"
     stroke="rgb(0,0,0)"
     stroke-width="0.0010cm"
     stroke-linecap="round"
     stroke-linejoin="round"
     id="path9"
     style="fill:none;stroke:#ff0000;stroke-opacity:1;stroke-width:0.001;stroke-dasharray:none" /><path
     d="M-0.2645751,1.05 L-1.2459936,1.05 A1.25,1.25 175.4114342 0,0 -0.1,2.1959936 L-0.1,1.2145751 A0.2828427,0.2828427 110.7048111 0,1 -0.2645751,1.05z"
     transform="matrix(1,0,0,-1,1.75,2.7)"
     fill="rgb(255,255,255)"
     stroke="rgb(0,0,0)"
     stroke-width="0.0010cm"
     stroke-linecap="round"
     stroke-linejoin="round"
     id="path10"
     style="fill:none;stroke:#ff0000;stroke-opacity:1;stroke-width:0.001;stroke-dasharray:none" /><path
     d="M-0.2745145,-0.3802789 L-0.3672196,-0.6655958 -0.6525365,-0.5728907 -0.5598314,-0.2875738 -0.2745145,-0.3802789z"
     transform="matrix(1,0,0,-1,1.75,2.7)"
     fill="rgb(255,255,255)"
     stroke="rgb(0,0,0)"
     stroke-width="0.0010cm"
     stroke-linecap="round"
     stroke-linejoin="round"
     id="path11"
     style="fill:none;stroke:#ff0000;stroke-opacity:1;stroke-width:0.001;stroke-dasharray:none" /><path
     d="M0.2645751,0.85 L1.2459936,0.85 A1.25,1.25 355.4114342 0,0 0.1,-0.2959936 L0.1,0.6854249 A0.2828427,0.2828427 290.7048111 0,1 0.2645751,0.85z"
     transform="matrix(1,0,0,-1,1.75,2.7)"
     fill="rgb(255,255,255)"
     stroke="rgb(0,0,0)"
     stroke-width="0.0010cm"
     stroke-linecap="round"
     stroke-linejoin="round"
     id="path12"
     style="fill:none;stroke:#ff0000;stroke-opacity:1;stroke-width:0.001;stroke-dasharray:none" /><path
     d="M0.1,1.2145751 L0.1,2.1959936 A1.25,1.25 85.4114342 0,0 1.2459936,1.05 L0.2645751,1.05 A0.2828427,0.2828427 20.7048111 0,1 0.1,1.2145751z"
     transform="matrix(1,0,0,-1,1.75,2.7)"
     fill="rgb(255,255,255)"
     stroke="rgb(0,0,0)"
     stroke-width="0.0010cm"
     stroke-linecap="round"
     stroke-linejoin="round"
     id="path13"
     style="fill:none;stroke:#ff0000;stroke-opacity:1;stroke-width:0.001;stroke-dasharray:none" /><path
     d="M0.2745145,2.2802789 L0.3672196,2.5655958 0.6525365,2.4728907 0.5598314,2.1875738 0.2745145,2.2802789z"
     transform="matrix(1,0,0,-1,1.75,2.7)"
     fill="rgb(255,255,255)"
     stroke="rgb(0,0,0)"
     stroke-width="0.0010cm"
     stroke-linecap="round"
     stroke-linejoin="round"
     id="path14"
     style="fill:none;stroke:#ff0000;stroke-opacity:1;stroke-width:0.001;stroke-dasharray:none" /><path
     d="M-0.5598314,2.1875738 L-0.6525365,2.4728907 -0.3672196,2.5655958 -0.2745145,2.2802789 -0.5598314,2.1875738z"
     transform="matrix(1,0,0,-1,1.75,2.7)"
     fill="rgb(255,255,255)"
     stroke="rgb(0,0,0)"
     stroke-width="0.0010cm"
     stroke-linecap="round"
     stroke-linejoin="round"
     id="path15"
     style="fill:none;stroke:#ff0000;stroke-opacity:1;stroke-width:0.001;stroke-dasharray:none" /><path
     d="M0.15,1.1 L0.15,0.8 -0.15,0.8 -0.15,1.1 0.15,1.1z"
     transform="matrix(1,0,0,-1,1.75,2.7)"
     fill="rgb(255,255,255)"
     stroke="rgb(0,0,0)"
     stroke-width="0.0010cm"
     stroke-linecap="round"
     stroke-linejoin="round"
     id="path16"
     style="fill:none;stroke:#ff0000;stroke-opacity:1;stroke-width:0.001;stroke-dasharray:none" /></svg>
