<?xml version="1.0" encoding="UTF-8" standalone="no"?>
<!-- Generator: Fusion 360, Shaper Origin Export Add-In, Version 1.8.0  -->

<svg
   shaper:fusionaddin="version:1.8.0"
   width="1.8cm"
   height="1.8cm"
   version="1.1"
   x="0cm"
   y="0cm"
   viewBox="0 0 1.8 1.8"
   enable-background="new 0 0 1.8 1.8"
   xml:space="preserve"
   id="svg11"
   sodipodi:docname="engineBackPannel.svg"
   inkscape:version="1.4 (e7c3feb1, 2024-10-09)"
   xmlns:inkscape="http://www.inkscape.org/namespaces/inkscape"
   xmlns:sodipodi="http://sodipodi.sourceforge.net/DTD/sodipodi-0.dtd"
   xmlns="http://www.w3.org/2000/svg"
   xmlns:svg="http://www.w3.org/2000/svg"
   xmlns:shaper="http://www.shapertools.com/namespaces/shaper"><defs
     id="defs11" /><sodipodi:namedview
     id="namedview11"
     pagecolor="#ffffff"
     bordercolor="#000000"
     borderopacity="0.25"
     inkscape:showpageshadow="2"
     inkscape:pageopacity="0.0"
     inkscape:pagecheckerboard="0"
     inkscape:deskcolor="#d1d1d1"
     inkscape:document-units="cm"
     inkscape:zoom="1.2497056"
     inkscape:cx="58.813854"
     inkscape:cy="-71.216775"
     inkscape:window-width="1400"
     inkscape:window-height="683"
     inkscape:window-x="0"
     inkscape:window-y="37"
     inkscape:window-maximized="0"
     inkscape:current-layer="svg11" /><path
     d="M-0.9,0 a0.9,0.9 0 1,1 1.8,0 a0.9,0.9 0 1,1 -1.8,0z"
     transform="matrix(1,0,0,-1,0.9,0.9)"
     fill="rgb(0,0,0)"
     stroke-linecap="round"
     stroke-linejoin="round"
     id="path1"
     style="fill:none;stroke:#ff0000;stroke-opacity:1;stroke-width:0.001;stroke-dasharray:none" /><path
     d="M-0.5721939,-0.5331444 L-0.4840261,-0.4117919 -0.241321,-0.5881274 -0.3294888,-0.70948 -0.5721939,-0.5331444z"
     transform="matrix(1,0,0,-1,0.9,0.9)"
     fill="rgb(255,255,255)"
     stroke="rgb(0,0,0)"
     stroke-width="0.0010cm"
     stroke-linecap="round"
     stroke-linejoin="round"
     id="path2"
     style="fill:none;stroke:#ff0000;stroke-opacity:1;stroke-width:0.001;stroke-dasharray:none" /><path
     d="M-0.3302328,0.7089394 L-0.2420651,0.5875868 -0.4847702,0.4112513 -0.5729379,0.5326038 -0.3302328,0.7089394z"
     transform="matrix(1,0,0,-1,0.9,0.9)"
     fill="rgb(255,255,255)"
     stroke="rgb(0,0,0)"
     stroke-width="0.0010cm"
     stroke-linecap="round"
     stroke-linejoin="round"
     id="path3"
     style="fill:none;stroke:#ff0000;stroke-opacity:1;stroke-width:0.001;stroke-dasharray:none" /><path
     d="M-0.6835839,-0.3803127 L-0.776289,-0.0949958 -0.6336305,-0.0486432 -0.5409254,-0.3339602 -0.6835839,-0.3803127z"
     transform="matrix(1,0,0,-1,0.9,0.9)"
     fill="rgb(255,255,255)"
     stroke="rgb(0,0,0)"
     stroke-width="0.0010cm"
     stroke-linecap="round"
     stroke-linejoin="round"
     id="path4"
     style="fill:none;stroke:#ff0000;stroke-opacity:1;stroke-width:0.001;stroke-dasharray:none" /><path
     d="M0.1495401,0.76765 L0.1495401,0.61765 -0.1504599,0.61765 -0.1504599,0.76765 0.1495401,0.76765z"
     transform="matrix(1,0,0,-1,0.9,0.9)"
     fill="rgb(255,255,255)"
     stroke="rgb(0,0,0)"
     stroke-width="0.0010cm"
     stroke-linecap="round"
     stroke-linejoin="round"
     id="path5"
     style="fill:none;stroke:#ff0000;stroke-opacity:1;stroke-width:0.001;stroke-dasharray:none" /><path
     d="M-0.1495401,-0.76765 L-0.1495401,-0.61765 0.1504599,-0.61765 0.1504599,-0.76765 -0.1495401,-0.76765z"
     transform="matrix(1,0,0,-1,0.9,0.9)"
     fill="rgb(255,255,255)"
     stroke="rgb(0,0,0)"
     stroke-width="0.0010cm"
     stroke-linecap="round"
     stroke-linejoin="round"
     id="path6"
     style="fill:none;stroke:#ff0000;stroke-opacity:1;stroke-width:0.001;stroke-dasharray:none" /><path
     d="M0.776289,0.0949958 L0.6336305,0.0486432 0.5409254,0.3339602 0.6835839,0.3803127 0.776289,0.0949958z"
     transform="matrix(1,0,0,-1,0.9,0.9)"
     fill="rgb(255,255,255)"
     stroke="rgb(0,0,0)"
     stroke-width="0.0010cm"
     stroke-linecap="round"
     stroke-linejoin="round"
     id="path7"
     style="fill:none;stroke:#ff0000;stroke-opacity:1;stroke-width:0.001;stroke-dasharray:none" /><path
     d="M0.3302328,-0.7089394 L0.2420651,-0.5875868 0.4847702,-0.4112513 0.5729379,-0.5326038 0.3302328,-0.7089394z"
     transform="matrix(1,0,0,-1,0.9,0.9)"
     fill="rgb(255,255,255)"
     stroke="rgb(0,0,0)"
     stroke-width="0.0010cm"
     stroke-linecap="round"
     stroke-linejoin="round"
     id="path8"
     style="fill:none;stroke:#ff0000;stroke-opacity:1;stroke-width:0.001;stroke-dasharray:none" /><path
     d="M-0.6838681,0.379438 L-0.5412096,0.3330855 -0.6339147,0.0477685 -0.7765732,0.0941211 -0.6838681,0.379438z"
     transform="matrix(1,0,0,-1,0.9,0.9)"
     fill="rgb(255,255,255)"
     stroke="rgb(0,0,0)"
     stroke-width="0.0010cm"
     stroke-linecap="round"
     stroke-linejoin="round"
     id="path9"
     style="fill:none;stroke:#ff0000;stroke-opacity:1;stroke-width:0.001;stroke-dasharray:none" /><path
     d="M0.5721939,0.5331444 L0.4840261,0.4117919 0.241321,0.5881274 0.3294888,0.70948 0.5721939,0.5331444z"
     transform="matrix(1,0,0,-1,0.9,0.9)"
     fill="rgb(255,255,255)"
     stroke="rgb(0,0,0)"
     stroke-width="0.0010cm"
     stroke-linecap="round"
     stroke-linejoin="round"
     id="path10"
     style="fill:none;stroke:#ff0000;stroke-opacity:1;stroke-width:0.001;stroke-dasharray:none" /><path
     d="M0.6838681,-0.379438 L0.5412096,-0.3330855 0.6339147,-0.0477685 0.7765732,-0.0941211 0.6838681,-0.379438z"
     transform="matrix(1,0,0,-1,0.9,0.9)"
     fill="rgb(255,255,255)"
     stroke="rgb(0,0,0)"
     stroke-width="0.0010cm"
     stroke-linecap="round"
     stroke-linejoin="round"
     id="path11"
     style="fill:none;stroke:#ff0000;stroke-opacity:1;stroke-width:0.001;stroke-dasharray:none" /></svg>
