<?xml version="1.0" encoding="UTF-8" standalone="no"?>
<!-- Generator: Fusion 360, Shaper Origin Export Add-In, Version 1.8.0  -->

<svg
   shaper:fusionaddin="version:1.8.0"
   width="1.24cm"
   height="0.5cm"
   version="1.1"
   x="0cm"
   y="0cm"
   viewBox="0 0 1.24 0.5"
   enable-background="new 0 0 1.24 0.5"
   xml:space="preserve"
   id="svg1"
   sodipodi:docname="engineFanPointIn.svg"
   inkscape:version="1.4 (e7c3feb1, 2024-10-09)"
   xmlns:inkscape="http://www.inkscape.org/namespaces/inkscape"
   xmlns:sodipodi="http://sodipodi.sourceforge.net/DTD/sodipodi-0.dtd"
   xmlns="http://www.w3.org/2000/svg"
   xmlns:svg="http://www.w3.org/2000/svg"
   xmlns:shaper="http://www.shapertools.com/namespaces/shaper"><defs
     id="defs1" /><sodipodi:namedview
     id="namedview1"
     pagecolor="#ffffff"
     bordercolor="#000000"
     borderopacity="0.25"
     inkscape:showpageshadow="2"
     inkscape:pageopacity="0.0"
     inkscape:pagecheckerboard="0"
     inkscape:deskcolor="#d1d1d1"
     inkscape:document-units="cm"
     inkscape:zoom="1.3758333"
     inkscape:cx="23.622047"
     inkscape:cy="9.0854028"
     inkscape:window-width="1456"
     inkscape:window-height="716"
     inkscape:window-x="0"
     inkscape:window-y="37"
     inkscape:window-maximized="0"
     inkscape:current-layer="svg1" /><path
     d="M0.62,0.15 L0.02,0.15 0.02,0.25 0.02,0.25 -0.0236158,0.2496282 -0.0671018,0.2485138 -0.1103288,0.2466602 -0.1531681,0.2440729 -0.1954922,0.2407595 -0.2371754,0.23673 -0.2780935,0.2319963 -0.318125,0.2265725 -0.3571507,0.2204748 -0.3950544,0.2137212 -0.4317236,0.2063319 -0.467049,0.1983288 -0.5009257,0.1897357 -0.5332528,0.1805783 -0.5639342,0.1708837 -0.5928786,0.1606809 -0.62,0.15 -0.48,0.15 -0.48,-0.15 -0.62,-0.15 -0.62,-0.15 -0.5928786,-0.1606809 -0.5639342,-0.1708837 -0.5332528,-0.1805783 -0.5009257,-0.1897357 -0.467049,-0.1983288 -0.4317236,-0.2063319 -0.3950544,-0.2137212 -0.3571507,-0.2204748 -0.318125,-0.2265725 -0.2780935,-0.2319963 -0.2371754,-0.23673 -0.1954922,-0.2407595 -0.1531681,-0.2440729 -0.1103288,-0.2466602 -0.0671018,-0.2485138 -0.0236158,-0.2496282 0.02,-0.25 0.02,-0.15 0.62,-0.15 0.62,0.15z"
     transform="matrix(1,0,0,-1,0.62,0.25)"
     fill="rgb(0,0,0)"
     stroke-linecap="round"
     stroke-linejoin="round"
     id="path1"
     style="fill:none;stroke:#ff0000;stroke-opacity:1;stroke-width:0.001;stroke-dasharray:none" /></svg>
