<?xml version="1.0" encoding="UTF-8" standalone="no"?>
<!-- Generator: Fusion 360, Shaper Origin Export Add-In, Version 1.8.0  -->

<svg
   shaper:fusionaddin="version:1.8.0"
   width="6cm"
   height="3cm"
   version="1.1"
   x="0cm"
   y="0cm"
   viewBox="0 0 6 3"
   enable-background="new 0 0 6 3"
   xml:space="preserve"
   id="svg1"
   sodipodi:docname="frontToMiddleFrame.svg"
   inkscape:version="1.4 (e7c3feb1, 2024-10-09)"
   xmlns:inkscape="http://www.inkscape.org/namespaces/inkscape"
   xmlns:sodipodi="http://sodipodi.sourceforge.net/DTD/sodipodi-0.dtd"
   xmlns="http://www.w3.org/2000/svg"
   xmlns:svg="http://www.w3.org/2000/svg"
   xmlns:shaper="http://www.shapertools.com/namespaces/shaper"><defs
     id="defs1" /><sodipodi:namedview
     id="namedview1"
     pagecolor="#ffffff"
     bordercolor="#000000"
     borderopacity="0.25"
     inkscape:showpageshadow="2"
     inkscape:pageopacity="0.0"
     inkscape:pagecheckerboard="0"
     inkscape:deskcolor="#d1d1d1"
     inkscape:document-units="cm"
     inkscape:zoom="1.2971481"
     inkscape:cx="138.3805"
     inkscape:cy="24.669504"
     inkscape:window-width="1368"
     inkscape:window-height="755"
     inkscape:window-x="0"
     inkscape:window-y="37"
     inkscape:window-maximized="0"
     inkscape:current-layer="svg1" /><path
     d="M-3,-1.35 L-3,-2.85 -2.7,-2.85 -2.7,-2.7 -2.55,-2.7 -2.55,-2.6 -2.7,-2.6 -2.7,-1.3500059 A1.2,1.2 180.0002831 0,0 -1.499959,-0.15 L2.5000028,-0.15 A0.2,0.2 89.9991908 0,0 2.7,-0.3499988 L2.7,-2.6 2.55,-2.6 2.55,-2.7 2.7,-2.7 2.7,-2.85 3,-2.85 3,-0.35 A0.5,0.5 0 0,1 2.5,0.15 L-1.5,0.15 A1.5,1.5 90 0,1 -3,-1.35z"
     transform="matrix(1,0,0,-1,3,0.15)"
     fill="rgb(0,0,0)"
     stroke-linecap="round"
     stroke-linejoin="round"
     id="path1"
     style="fill:none;stroke:#ff0000;stroke-opacity:1;stroke-width:0.001;stroke-dasharray:none" /></svg>
