<?xml version="1.0" encoding="UTF-8" standalone="no"?>
<!-- Generator: Fusion 360, Shaper Origin Export Add-In, Version 1.8.0  -->

<svg
   shaper:fusionaddin="version:1.8.0"
   width="3cm"
   height="4cm"
   version="1.1"
   x="0cm"
   y="0cm"
   viewBox="0 0 3 4"
   enable-background="new 0 0 3 4"
   xml:space="preserve"
   id="svg1"
   sodipodi:docname="frontFrame.svg"
   inkscape:version="1.4 (e7c3feb1, 2024-10-09)"
   xmlns:inkscape="http://www.inkscape.org/namespaces/inkscape"
   xmlns:sodipodi="http://sodipodi.sourceforge.net/DTD/sodipodi-0.dtd"
   xmlns="http://www.w3.org/2000/svg"
   xmlns:svg="http://www.w3.org/2000/svg"
   xmlns:shaper="http://www.shapertools.com/namespaces/shaper"><defs
     id="defs1" /><sodipodi:namedview
     id="namedview1"
     pagecolor="#ffffff"
     bordercolor="#000000"
     borderopacity="0.25"
     inkscape:showpageshadow="2"
     inkscape:pageopacity="0.0"
     inkscape:pagecheckerboard="0"
     inkscape:deskcolor="#d1d1d1"
     inkscape:document-units="cm"
     inkscape:zoom="0.97286108"
     inkscape:cx="105.35934"
     inkscape:cy="114.6104"
     inkscape:window-width="1464"
     inkscape:window-height="744"
     inkscape:window-x="0"
     inkscape:window-y="37"
     inkscape:window-maximized="0"
     inkscape:current-layer="svg1" /><path
     d="M2.7,-1.55 L2.6,-1.55 2.6,-1.7 1.35,-1.7 A1.2,1.2 270 0,0 0.15,-0.5 L0.15,1.5 A0.2,0.2 180 0,0 0.35,1.7 L2.6,1.7 2.6,1.5 2.7,1.5 2.7,1.7 2.85,1.7 2.85,2 0.35,2 A0.5,0.5 90 0,1 -0.15,1.5 L-0.15,-0.5 A1.5,1.5 180 0,1 1.35,-2 L2.85,-2 2.85,-1.7 2.7,-1.7 2.7,-1.55z"
     transform="matrix(1,0,0,-1,0.15,2)"
     fill="rgb(0,0,0)"
     stroke-linecap="round"
     stroke-linejoin="round"
     id="path1"
     style="fill:none;stroke:#ff0000;stroke-opacity:1;stroke-width:0.001;stroke-dasharray:none" /></svg>
