<?xml version="1.0" encoding="utf-8"?>
<!-- Generator: Fusion 360, Shaper Origin Export Add-In, Version 1.8.0  -->
<svg xmlns="http://www.w3.org/2000/svg" xmlns:xlink="http://www.w3.org/1999/xlink" xmlns:shaper="http://www.shapertools.com/namespaces/shaper" shaper:fusionaddin="version:1.8.0" width="24cm" height="7.0000001cm" version="1.1" x="0cm" y="0cm" viewBox="0 0 24 7.0000001" enable-background="new 0 0 24 7.0000001" xml:space="preserve"><path d="M5.1500001,-6.7000001 L5.7000003,-6.7000001 5.7000003,-6.7000001 5.7318313,-6.6885753 5.761519,-6.6778662 5.7892831,-6.6677985 5.8153145,-6.6583074 5.8397797,-6.6493364 5.8628251,-6.640836 5.8845794,-6.6327624 5.9051565,-6.6250768 5.9246575,-6.6177449 5.9431726,-6.6107361 5.9607823,-6.6040229 5.9775588,-6.5975807 5.993567,-6.5913873 6.0088655,-6.5854226 6.0235073,-6.5796685 6.0375405,-6.5741085 6.0639517,-6.5635122 6.0884045,-6.5535283 6.1111547,-6.544068 6.1324185,-6.535056 6.1523799,-6.5264274 6.1711966,-6.5181262 6.1890051,-6.5101035 6.2059242,-6.5023161 6.2220578,-6.4947255 6.2374976,-6.4872973 6.2666129,-6.4728058 6.2938257,-6.4586209 6.3195918,-6.4445504 6.3442962,-6.4304205 6.3682744,-6.4160666 6.4152449,-6.3860354 6.4387963,-6.3700158 6.4627626,-6.3530745 6.4874373,-6.334993 6.5131402,-6.3155181 6.526488,-6.3051666 6.5402323,-6.2943498 6.5544278,-6.2830202 6.5691339,-6.2711252 6.5844166,-6.2586059 6.6003486,-6.2453967 6.6170112,-6.2314233 6.6344957,-6.2166018 6.6529051,-6.2008369 6.6723567,-6.1840195 6.6929845,-6.1660243 6.7149428,-6.1467064 6.7384105,-6.1258975 6.7507743,-6.1148736 6.7635963,-6.1034004 6.7769085,-6.0914478 6.7907456,-6.0789829 6.8051454,-6.0659699 6.8201492,-6.0523694 6.8358023,-6.0381385 6.8521543,-6.02323 6.8692601,-6.0075919 6.8871798,-5.9911667 6.9059802,-5.973891 6.9257352,-5.9556944 6.9465271,-5.9364986 6.9684476,-5.916216 6.9915994,-5.894749 7.0160977,-5.8719876 7.0420722,-5.8478081 7.0696699,-5.8220704 7.0841286,-5.8085685 7.0990572,-5.7946157 7.1144804,-5.7801888 7.1304243,-5.7652627 7.1469169,-5.7498106 7.1639885,-5.7338038 7.1816714,-5.7172113 7.2000003,-5.7000001 7.5000003,-5.7000001 7.5000003,-5.7000001 7.5184089,-5.6838783 7.5361595,-5.6683046 7.5532874,-5.6532492 7.5698255,-5.6386845 7.5858045,-5.6245848 7.6012528,-5.6109261 7.6161972,-5.5976859 7.6306624,-5.5848433 7.658247,-5.5602739 7.684176,-5.5370755 7.7085983,-5.5151225 7.7316459,-5.4943039 7.7534356,-5.4745211 7.7740716,-5.4556862 7.793647,-5.4377207 7.8122452,-5.420554 7.8299413,-5.4041228 7.8468029,-5.3883697 7.862891,-5.373243 7.8782612,-5.3586957 7.8929637,-5.344685 7.9070444,-5.3311719 7.9205452,-5.3181207 7.9335042,-5.3054988 7.9459565,-5.2932761 7.9579344,-5.2814251 7.9805829,-5.2587379 8.0016601,-5.2372556 8.021346,-5.2168214 8.0397957,-5.1972997 8.0571432,-5.1785715 8.0735055,-5.1605322 8.0889852,-5.1430886 8.1036725,-5.1261576 8.1176474,-5.1096639 8.1309811,-5.0935393 8.1437375,-5.0777208 8.1677423,-5.0467743 8.19006,-5.0164017 8.211024,-4.9862206 8.2309201,-4.9558709 8.2500003,-4.9250001 8.2684935,-4.8932486 8.2866145,-4.8602363 8.3045729,-4.8255468 8.3135571,-4.8074288 8.322581,-4.7887098 8.3316729,-4.7693188 8.3408628,-4.7491787 8.350182,-4.7282045 8.3596642,-4.7063026 8.3693457,-4.6833689 8.379266,-4.6592873 8.3894683,-4.6339277 8.4000003,-4.6071429 8.4109156,-4.5787664 8.4222741,-4.548608 8.4341438,-4.5164494 8.4402942,-4.4995429 8.4466023,-4.4820389 8.4530797,-4.4638996 8.459739,-4.4450841 8.4665934,-4.4255479 8.4736576,-4.405243 8.4809473,-4.3841171 8.4884796,-4.3621133 8.4962731,-4.3391694 8.5043482,-4.3152175 8.512727,-4.2901831 8.5214339,-4.2639846 8.5304958,-4.236532 8.539942,-4.207726 8.5498053,-4.1774569 8.5601216,-4.1456028 8.5709313,-4.1120283 8.5822788,-4.0765823 8.5942144,-4.0390958 8.6004199,-4.0195288 8.606794,-3.9993787 8.6133449,-3.9786179 8.620081,-3.9572172 8.6270117,-3.9351454 8.6341467,-3.9123694 8.6414965,-3.8888537 8.6490721,-3.8645606 8.6568857,-3.8394496 8.6649497,-3.8134775 8.6732781,-3.7865981 8.6818853,-3.7587616 8.6907871,-3.7299147 8.7000003,-3.7000001 10.8000004,-3.7000001 10.8000004,-3.7000001 10.8701371,-3.6375001 10.938332,-3.5750001 11.0045815,-3.5125001 11.0688799,-3.4500001 11.1312192,-3.3875001 11.1915893,-3.3250001 11.2499777,-3.2625001 11.3063702,-3.2000001 11.3607502,-3.1375001 11.4130994,-3.0750001 11.4633976,-3.0125001 11.5116232,-2.9500001 11.5577527,-2.8875001 11.6017615,-2.8250001 11.6436234,-2.7625001 11.6833115,-2.7000001 11.7207977,-2.6375001 11.7560535,-2.5750001 11.7890497,-2.5125001 11.8197572,-2.4500001 11.8481466,-2.3875001 11.874189,-2.3250001 11.8978559,-2.2625001 11.9087899,-2.2312501 11.9191199,-2.2000001 11.9288425,-2.1687501 11.9379547,-2.1375001 11.9464534,-2.1062501 11.9543358,-2.0750001 11.9615989,-2.0437501 11.9682402,-2.0125001 11.9742572,-1.9812501 11.9796475,-1.9500001 11.984409,-1.9187501 11.9885399,-1.8875001 11.9920383,-1.8562501 11.9949028,-1.8250001 11.9971321,-1.7937501 11.9987251,-1.7625001 11.9996813,-1.7312501 12.0000001,-1.7000001 11.9996813,-1.6687501 11.9987251,-1.6375001 11.9971321,-1.6062501 11.9949028,-1.5750001 11.9920383,-1.5437501 11.9885399,-1.5125001 11.984409,-1.4812501 11.9796475,-1.45 11.9742571,-1.41875 11.9682402,-1.3875 11.9615989,-1.35625 11.9543358,-1.325 11.9464534,-1.29375 11.9379547,-1.2625 11.9288425,-1.23125 11.9191199,-1.2 11.9087899,-1.16875 11.8978559,-1.1375 11.874189,-1.075 11.8481466,-1.0125 11.8197572,-0.95 11.7890497,-0.8875 11.7560535,-0.825 11.7207977,-0.7625 11.6833115,-0.7 11.6436234,-0.6375 11.6017615,-0.575 11.5577527,-0.5125 11.5116232,-0.45 11.4633976,-0.3875 11.4130994,-0.325 11.3607502,-0.2625 11.3063702,-0.2 11.2499777,-0.1375 11.1915893,-0.075 11.1312192,-0.0125 11.0688799,0.05 11.0045815,0.1125 10.938332,0.175 10.8701371,0.2375 10.8000004,0.3 -1.7999998,0.3 -1.7999998,0.3 -1.8163822,0.2884961 -1.832192,0.2774109 -1.8474598,0.2667218 -1.8622146,0.2564081 -1.89029,0.2368305 -1.9166112,0.2185378 -1.9413471,0.201408 -1.9646455,0.1853335 -1.9866369,0.1702201 -2.0074364,0.1559841 -2.0271465,0.1425515 -2.0458583,0.1298563 -2.0636533,0.1178396 -2.0806046,0.1064485 -2.096778,0.0956355 -2.1122326,0.085358 -2.1270222,0.0755771 -2.1411953,0.066258 -2.1547961,0.0573687 -2.167865,0.0488804 -2.1925508,0.0330033 -2.2155114,0.0184413 -2.2369656,0.0050386 -2.2570995,-0.0073372 -2.2760727,-0.0187987 -2.2940232,-0.0294428 -2.311071,-0.039353 -2.3273213,-0.0486018 -2.3428667,-0.0572523 -2.3577896,-0.0653599 -2.3721634,-0.0729731 -2.3995221,-0.0868837 -2.4254028,-0.0992728 -2.4501934,-0.1103697 -2.4742318,-0.120359 -2.4978224,-0.1293905 -2.5212495,-0.1375868 -2.5447892,-0.1450491 -2.56872,-0.1518613 -2.5933345,-0.1580929 -2.6189512,-0.1638017 -2.6459287,-0.1690355 -2.6746844,-0.1738335 -2.6898811,-0.176079 -2.7057177,-0.1782266 -2.7222747,-0.180279 -2.7396424,-0.1822385 -2.7579231,-0.1841068 -2.7772328,-0.1858852 -2.7977041,-0.1875745 -2.8194899,-0.1891747 -2.8427672,-0.1906854 -2.8677426,-0.1921053 -2.894659,-0.1934323 -2.923804,-0.1946633 -2.9393171,-0.1952416 -2.9555214,-0.1957941 -2.9724711,-0.1963201 -2.9902256,-0.1968187 -3.0088512,-0.1972889 -3.0284209,-0.1977295 -3.0490161,-0.1981393 -3.0707276,-0.1985166 -3.0936569,-0.1988598 -3.1179181,-0.199167 -3.1436396,-0.1994357 -3.1709667,-0.1996636 -3.2000641,-0.1998475 -3.2311199,-0.1999842 -3.2643492,-0.2000696 -3.281855,-0.2000917 -3.2999998,-0.2000992 -3.5992559,-0.2000992 -3.5992559,-0.2000992 -3.6123615,-0.2271942 -3.6250179,-0.2533129 -3.6372494,-0.2785075 -3.6490786,-0.3028268 -3.6605266,-0.3263161 -3.6716129,-0.3490178 -3.682356,-0.3709711 -3.692773,-0.3922131 -3.7028798,-0.4127782 -3.7126916,-0.4326987 -3.7222224,-0.4520049 -3.7314853,-0.4707252 -3.7492569,-0.5065135 -3.7660971,-0.5402586 -3.7820866,-0.5721338 -3.7972973,-0.6022934 -3.8117934,-0.6308753 -3.8256327,-0.658003 -3.8388668,-0.6837874 -3.8515428,-0.7083288 -3.8637028,-0.7317175 -3.8753854,-0.7540356 -3.8866254,-0.7753575 -3.8974547,-0.7957509 -3.9079024,-0.8152778 -3.9179952,-0.8339947 -3.9277576,-0.8519534 -3.9372121,-0.8692013 -3.9463795,-0.8857824 -3.9552789,-0.9017367 -3.9639282,-0.9171016 -3.9723438,-0.9319114 -3.9885341,-0.9599905 -4.0039603,-0.9862021 -4.0187187,-1.0107434 -4.0328943,-1.0337859 -4.0465621,-1.0554794 -4.0597894,-1.0759558 -4.0726366,-1.0953312 -4.0851584,-1.1137089 -4.0974051,-1.1311809 -4.1094226,-1.1478294 -4.1212541,-1.1637284 -4.1329396,-1.1789449 -4.1445174,-1.1935393 -4.167494,-1.2210788 -4.1904622,-1.2467369 -4.2136912,-1.2708473 -4.2374522,-1.2937023 -4.2620291,-1.3155644 -4.2877295,-1.3366765 -4.3148984,-1.3572715 -4.3439339,-1.3775806 -4.3592954,-1.3877024 -4.3753076,-1.3978438 -4.3920457,-1.4080381 -4.409593,-1.4183203 -4.4280435,-1.4287283 -4.4475027,-1.439303 -4.4680903,-1.4500892 -4.4899428,-1.4611367 -4.5132166,-1.472501 -4.5380921,-1.4842448 -4.564779,-1.4964397 -4.5935219,-1.5091678 -4.6087525,-1.5157611 -4.6246091,-1.5225247 -4.6411361,-1.5294732 -4.6583822,-1.5366225 -4.6764007,-1.5439899 -4.6952499,-1.5515942 -4.7149943,-1.5594562 -4.7357048,-1.5675987 -4.7574601,-1.5760469 -4.7803472,-1.5848287 -4.804463,-1.593975 -4.8299156,-1.6035202 -4.856826,-1.6135028 -4.8853299,-1.6239658 -4.9155804,-1.6349579 -4.9477505,-1.6465337 -4.9820367,-1.6587555 -5.000042,-1.6651304 -5.0186628,-1.6716941 -5.0379321,-1.678457 -5.0578855,-1.6854303 -5.0785611,-1.6926262 -5.0999999,-1.7000576 -10.7999999,-1.7000576 -10.7999999,-1.7000576 -10.8701368,-1.7781806 -10.9383318,-1.8563037 -11.0045814,-1.9344269 -11.0688799,-2.01255 -11.1312193,-2.0906732 -11.1915895,-2.1687965 -11.249978,-2.2469197 -11.3063705,-2.325043 -11.3607506,-2.4031663 -11.4130998,-2.4812896 -11.4633981,-2.559413 -11.5116237,-2.6375364 -11.5577533,-2.7156598 -11.6017621,-2.7937833 -11.643624,-2.8719068 -11.6833121,-2.9500303 -11.7207983,-3.0281539 -11.7560541,-3.1062774 -11.7890503,-3.1844011 -11.8197578,-3.2625247 -11.8481472,-3.3406484 -11.8741895,-3.4187721 -11.8978564,-3.4968959 -11.9087904,-3.5359578 -11.9191203,-3.5750197 -11.9288429,-3.6140816 -11.9379551,-3.6531435 -11.9464538,-3.6922054 -11.9543361,-3.7312674 -11.9615992,-3.7703293 -11.9682404,-3.8093913 -11.9742574,-3.8484532 -11.9796477,-3.8875152 -11.9844092,-3.9265772 -11.98854,-3.9656392 -11.9920384,-4.0047012 -11.9949028,-4.0437632 -11.9971321,-4.0828252 -11.9987251,-4.1218872 -11.9996812,-4.1609493 -12,-4.2000113 -11.9996812,-4.2390734 -11.998725,-4.2781354 -11.9971318,-4.3171975 -11.9949025,-4.3562596 -11.992038,-4.3953217 -11.9885396,-4.4343838 -11.9844087,-4.4734459 -11.9796471,-4.512508 -11.9742567,-4.5515701 -11.9682397,-4.5906323 -11.9615984,-4.6296944 -11.9543352,-4.6687566 -11.9464529,-4.7078188 -11.9379541,-4.7468809 -11.9288419,-4.7859431 -11.9191192,-4.8250053 -11.9087892,-4.8640675 -11.8978552,-4.9031297 -11.8741882,-4.9812542 -11.8481458,-5.0593787 -11.8197563,-5.1375032 -11.7890488,-5.2156277 -11.7560525,-5.2937523 -11.7207967,-5.3718769 -11.6833105,-5.4500016 -11.6436224,-5.5281263 -11.6017605,-5.606251 -11.5577517,-5.6843757 -11.5116222,-5.7625005 -11.4633966,-5.8406253 -11.4130984,-5.9187501 -11.3607492,-5.996875 -11.3063693,-6.0749999 -11.2499769,-6.1531248 -11.1915884,-6.2312498 -11.1312184,-6.3093748 -11.0688792,-6.3874998 -11.0045808,-6.4656248 -10.9383314,-6.5437499 -10.8701366,-6.621875 -10.7999999,-6.7000001 2.6500001,-6.7000001 2.6500001,-6.4000001 3.1500001,-6.4000001 3.1500001,-6.7000001 4.6500001,-6.7000001 4.6500001,-6.4000001 5.1500001,-6.4000001 5.1500001,-6.7000001z" transform="matrix(1,0,0,-1,12,0.3)" fill="rgb(0,0,0)" stroke-linecap="round" stroke-linejoin="round" /><path d="M-10.5281435,-2.3000576 L-4.9991492,-2.3000576 -4.9991492,-2.3000576 -4.9156041,-2.2711558 -4.8735497,-2.2565806 -4.8532405,-2.249505 -4.8335422,-2.2426158 -4.7958967,-2.2293703 -4.7604487,-2.2167912 -4.7270339,-2.2048257 -4.6954878,-2.1934208 -4.665646,-2.1825238 -4.6373441,-2.1720818 -4.6104178,-2.1620418 -4.5847025,-2.1523511 -4.5600338,-2.1429568 -4.5362628,-2.133811 -4.5133458,-2.124899 -4.4912477,-2.1162078 -4.4699287,-2.1077227 -4.4493489,-2.0994293 -4.4294685,-2.0913129 -4.4102476,-2.0833589 -4.3736248,-2.0678799 -4.3391619,-2.0528756 -4.3065399,-2.0382294 -4.2754402,-2.0238245 -4.2455438,-2.0095442 -4.2165688,-1.9952789 -4.18845,-1.9809766 -4.1611472,-1.9666091 -4.1346146,-1.9521479 -4.1088062,-1.9375644 -4.0836763,-1.9228301 -4.0591789,-1.9079165 -4.011898,-1.8774372 -3.9665967,-1.8458985 -3.9229078,-1.813072 -3.8806846,-1.7788641 -3.8401595,-1.7434318 -3.8012137,-1.7067346 -3.7637142,-1.6687235 -3.7275276,-1.6293495 -3.692521,-1.5885634 -3.6585612,-1.5463164 -3.6255149,-1.5025598 -3.5931534,-1.4572261 -3.5770706,-1.4337687 -3.5609575,-1.4096295 -3.5447424,-1.3846924 -3.5283535,-1.3588413 -3.5117193,-1.3319601 -3.4947679,-1.3039327 -3.4774277,-1.274643 -3.459627,-1.2439749 -3.441294,-1.2118123 -3.4223488,-1.1780139 -3.4026308,-1.142248 -3.3924186,-1.1234967 -3.3819371,-1.1040968 -3.371161,-1.083996 -3.3600647,-1.0631421 -3.3486229,-1.0414827 -3.3368103,-1.0189656 -3.3246013,-0.9955385 -3.3119708,-0.9711492 -3.2988931,-0.9457454 -3.2853309,-0.9192487 -3.2712213,-0.8915249 -3.2565163,-0.8624709 -3.2411685,-0.8319852 -3.2251307,-0.7999666 -3.2251307,-0.7999666 -3.1947998,-0.7998293 -3.1661709,-0.7996494 -3.1391221,-0.7994284 -3.113531,-0.7991677 -3.0892755,-0.7988688 -3.0662335,-0.7985332 -3.0442828,-0.7981623 -3.0233012,-0.7977577 -3.0031666,-0.7973208 -2.9837572,-0.796853 -2.965001,-0.7963561 -2.9468753,-0.79583 -2.9124006,-0.7946888 -2.8801035,-0.7934258 -2.8497541,-0.7920377 -2.8211228,-0.7905209 -2.7939798,-0.7888719 -2.7680953,-0.7870874 -2.7432397,-0.7851639 -2.7191833,-0.7830978 -2.6727327,-0.7785078 -2.6281918,-0.77323 -2.5853086,-0.7672062 -2.5438221,-0.7603805 -2.5034712,-0.7526973 -2.4639948,-0.7441007 -2.425132,-0.734535 -2.3866216,-0.7239444 -2.3484234,-0.7123238 -2.3107608,-0.6997226 -2.2734887,-0.6861012 -2.2364523,-0.6714176 -2.1994965,-0.6556295 -2.1624662,-0.638695 -2.1252065,-0.6205721 -2.0875623,-0.6012186 -2.0493649,-0.5805966 -2.0100763,-0.5584491 -1.9897399,-0.5466263 -1.9687886,-0.5342064 -1.947107,-0.5211161 -1.9245798,-0.507282 -1.9010918,-0.492631 -1.8765277,-0.4770896 -1.8507729,-0.4605851 -1.8236897,-0.4430249 -1.7949285,-0.4241603 -1.7797908,-0.4141476 -1.7640799,-0.4036995 -1.7477448,-0.3927794 -1.7307343,-0.3813508 -1.7129972,-0.3693774 -1.6944823,-0.3568226 -1.6751384,-0.3436499 -1.6549143,-0.329823 -1.6337529,-0.3153011 -1.6115382,-0.3 10.5677058,-0.3 10.5677058,-0.3 10.6215196,-0.3516819 10.6735533,-0.4031033 10.7237997,-0.4542354 10.7722513,-0.5050496 10.818901,-0.5555173 10.8637413,-0.6056098 10.906765,-0.6552985 10.9479646,-0.7045548 10.987333,-0.75335 11.0248628,-0.8016554 11.0605466,-0.8494425 11.0943772,-0.8966826 11.1263472,-0.943347 11.1564494,-0.9894071 11.1846763,-1.0348343 11.2110206,-1.0796 11.2354752,-1.1236754 11.2580447,-1.1669636 11.2787681,-1.2094097 11.2976891,-1.2510462 11.3148512,-1.2919057 11.3302984,-1.3320205 11.3440742,-1.3714233 11.3562224,-1.4101464 11.3667866,-1.4482224 11.3758106,-1.4856838 11.3833381,-1.522563 11.3894128,-1.5588926 11.3940783,-1.594705 11.3973824,-1.6300448 11.3994153,-1.6651635 11.4001746,-1.7002197 11.3996272,-1.7353036 11.39774,-1.770506 11.3944798,-1.805917 11.3898135,-1.8416273 11.3837079,-1.8777273 11.37613,-1.9143074 11.3670466,-1.9514581 11.3564246,-1.9892698 11.3442308,-2.0278329 11.3304321,-2.067238 11.3149323,-2.1075223 11.2976263,-2.1486287 11.2785104,-2.1905288 11.257581,-2.2331942 11.2348349,-2.276597 11.2102689,-2.3207089 11.1838795,-2.3655019 11.1556635,-2.4109476 11.1256176,-2.4570181 11.0937385,-2.5036851 11.0600228,-2.5509205 11.0244673,-2.5986962 10.9870686,-2.646984 10.9478235,-2.6957557 10.9067285,-2.7449832 10.8637805,-2.7946383 10.8189761,-2.844693 10.772312,-2.8951189 10.7238233,-2.9458859 10.6735525,-2.9969687 10.6215099,-3.0483469 10.5677058,-3.1000001 8.2568556,-3.1000001 8.2568556,-3.1000001 8.1810414,-3.3463959 8.1431344,-3.4695939 8.1242145,-3.5310819 8.1150714,-3.5607552 8.1062371,-3.589371 8.0976996,-3.6169699 8.0894469,-3.6435924 8.0814671,-3.6692792 8.0737482,-3.6940708 8.0662783,-3.7180078 8.0590455,-3.7411308 8.0520378,-3.7634803 8.0452432,-3.785097 8.0386498,-3.8060214 8.0322456,-3.8262942 8.0199573,-3.865047 8.0082945,-3.9016395 7.9972164,-3.9362102 7.9866895,-3.9688732 7.9766803,-3.9997425 7.9671552,-4.0289324 7.9580805,-4.0565569 7.9494229,-4.0827303 7.9411487,-4.1075667 7.9332242,-4.1311803 7.9256161,-4.1536851 7.9182908,-4.175195 7.911225,-4.195789 7.9044089,-4.2155012 7.8978327,-4.2343649 7.891487,-4.2524135 7.885362,-4.2696805 7.8794481,-4.2861991 7.8737357,-4.3020029 7.8682152,-4.3171252 7.862877,-4.3315993 7.8577114,-4.3454587 7.8527088,-4.3587367 7.8431541,-4.3836823 7.8341361,-4.4067032 7.8255776,-4.4280664 7.8174168,-4.4480123 7.809654,-4.4666257 7.8022616,-4.483984 7.7952076,-4.50017 7.7884597,-4.5152669 7.7819859,-4.5293574 7.775754,-4.5425245 7.7697319,-4.5548512 7.7638875,-4.5664205 7.7581887,-4.5773153 7.7526033,-4.5876184 7.7416444,-4.6067818 7.7307538,-4.6245742 7.7081598,-4.6586771 7.6959445,-4.675997 7.6823897,-4.6941829 7.6748879,-4.703804 7.6667848,-4.7138855 7.6579916,-4.7245089 7.6484195,-4.7357553 7.6379798,-4.7477061 7.6265835,-4.7604427 7.614142,-4.7740464 7.6005665,-4.7885984 7.5857681,-4.80418 7.5696688,-4.8208588 7.5521351,-4.8387248 7.5427314,-4.8481839 7.5328472,-4.8580401 7.5224404,-4.8683281 7.511469,-4.8790828 7.4998912,-4.890339 7.4876649,-4.9021313 7.474748,-4.9144947 7.4610987,-4.9274638 7.446675,-4.9410735 7.4314348,-4.9553586 7.4153362,-4.9703537 7.3983373,-4.9860938 7.3803959,-5.0026136 7.3614314,-5.0199809 7.341298,-5.038318 7.3198926,-5.0577106 7.2971136,-5.0782432 7.2728591,-5.1000001 6.9623895,-5.1000001 6.9623895,-5.1000001 6.8116551,-5.2415933 6.7743197,-5.2766605 6.7565055,-5.2933785 6.7393243,-5.3094904 6.7227471,-5.3250238 6.7067449,-5.3400063 6.6912888,-5.3544656 6.6763498,-5.3684294 6.6618989,-5.3819252 6.6479072,-5.3949808 6.6211757,-5.4198911 6.5959857,-5.4433222 6.5722448,-5.4653621 6.5498616,-5.4860982 6.5287447,-5.5056177 6.5088026,-5.524008 6.489944,-5.5413562 6.4720773,-5.5577497 6.4551112,-5.5732757 6.4389542,-5.5880215 6.4235149,-5.6020743 6.4087245,-5.6154999 6.3945639,-5.6283163 6.381007,-5.6405487 6.3680273,-5.6522223 6.3555986,-5.6633624 6.3436943,-5.6739941 6.3322881,-5.6841429 6.3213537,-5.6938339 6.3007944,-5.7119437 6.2818053,-5.7285256 6.2641753,-5.7437817 6.2476943,-5.7579133 6.2322217,-5.7710599 6.2177008,-5.7832776 6.2040745,-5.7946202 6.1912858,-5.8051412 6.1792776,-5.8148942 6.1679928,-5.8239331 6.1573745,-5.8323112 6.1473656,-5.8400824 6.137909,-5.8473003 6.1289478,-5.8540185 6.1122829,-5.8661703 6.0969147,-5.8769671 6.0824148,-5.8868238 6.0686518,-5.8959412 6.0415193,-5.9128504 6.0270757,-5.9211484 6.0113309,-5.9296794 5.9937478,-5.9386965 5.9840992,-5.9434665 5.9737895,-5.9484529 5.9627517,-5.9536873 5.9509187,-5.9592015 5.9382361,-5.9650183 5.9246303,-5.9711456 5.909875,-5.977656 5.8937289,-5.9846291 5.8759511,-5.9921449 5.8563003,-6.0002834 5.8345354,-6.0091243 5.8227849,-6.0138332 5.8104155,-6.0187477 5.797397,-6.0238777 5.7836993,-6.0292333 5.7692923,-6.0348244 5.7541459,-6.040661 5.7382178,-6.0467565 5.7214018,-6.0531465 5.7035756,-6.0598725 5.684617,-6.0669763 5.6644036,-6.0744993 5.6428131,-6.0824832 5.6197234,-6.0909696 5.5950121,-6.1000001 -10.5281384,-6.1000001 -10.5281384,-6.1000001 -10.5823227,-6.0347745 -10.6348144,-5.9697878 -10.6856062,-5.9050573 -10.7346908,-5.8406001 -10.7820608,-5.7764335 -10.827709,-5.7125748 -10.8716278,-5.6490411 -10.9138102,-5.5858497 -10.9542486,-5.5230178 -10.9929358,-5.4605627 -11.0298644,-5.3985017 -11.0650271,-5.3368518 -11.0984166,-5.2756304 -11.1300255,-5.2148547 -11.1598466,-5.1545419 -11.1878724,-5.0947093 -11.2140965,-5.0353908 -11.2385246,-4.9766591 -11.261171,-4.9184941 -11.2820501,-4.8608652 -11.3011763,-4.8037418 -11.318564,-4.7470935 -11.3342277,-4.6908896 -11.3481818,-4.6350997 -11.3604407,-4.5796931 -11.3710189,-4.5246393 -11.3799307,-4.4699078 -11.3871907,-4.415468 -11.3928133,-4.3612894 -11.3968128,-4.3073414 -11.3992038,-4.2535934 -11.4000007,-4.2000064 -11.3992132,-4.1463771 -11.3968306,-4.0926044 -11.3928383,-4.0386534 -11.3872219,-3.9844893 -11.3799669,-3.9300773 -11.3710587,-3.8753825 -11.3604828,-3.82037 -11.3482249,-3.7650051 -11.3342702,-3.7092528 -11.3186045,-3.6530784 -11.301213,-3.596447 -11.2820815,-3.5393237 -11.2611953,-3.4816737 -11.23854,-3.4234621 -11.2141006,-3.3646581 -11.1878604,-3.3053163 -11.1598215,-3.2454787 -11.1299909,-3.1851624 -11.0983754,-3.1243845 -11.0649822,-3.0631621 -11.0298181,-3.0015124 -10.9928903,-2.9394525 -10.9542058,-2.8769994 -10.9137714,-2.8141704 -10.8715942,-2.7509825 -10.8276812,-2.6874528 -10.7820395,-2.6235986 -10.7346759,-2.5594369 -10.6855975,-2.4949848 -10.6348113,-2.4302595 -10.5823243,-2.365278 -10.5281435,-2.3000576z" transform="matrix(1,0,0,-1,12,0.3)" fill="rgb(255,255,255)" stroke="rgb(0,0,0)" stroke-width="0.0010cm" stroke-linecap="round" stroke-linejoin="round" /></svg>