<?xml version="1.0" encoding="UTF-8" standalone="no"?>
<!-- Generator: Fusion 360, Shaper Origin Export Add-In, Version 1.8.0  -->

<svg
   shaper:fusionaddin="version:1.8.0"
   width="24cm"
   height="7.0000001cm"
   version="1.1"
   x="0cm"
   y="0cm"
   viewBox="0 0 24 7.0000001"
   enable-background="new 0 0 24 7.0000001"
   xml:space="preserve"
   id="svg2"
   sodipodi:docname="holderFrame.svg"
   inkscape:version="1.4 (e7c3feb1, 2024-10-09)"
   xmlns:inkscape="http://www.inkscape.org/namespaces/inkscape"
   xmlns:sodipodi="http://sodipodi.sourceforge.net/DTD/sodipodi-0.dtd"
   xmlns="http://www.w3.org/2000/svg"
   xmlns:svg="http://www.w3.org/2000/svg"
   xmlns:shaper="http://www.shapertools.com/namespaces/shaper"><defs
     id="defs2" /><sodipodi:namedview
     id="namedview2"
     pagecolor="#ffffff"
     bordercolor="#000000"
     borderopacity="0.25"
     inkscape:showpageshadow="2"
     inkscape:pageopacity="0.0"
     inkscape:pagecheckerboard="0"
     inkscape:deskcolor="#d1d1d1"
     inkscape:document-units="cm"
     inkscape:zoom="0.27796031"
     inkscape:cx="433.51513"
     inkscape:cy="-206.86407"
     inkscape:window-width="1352"
     inkscape:window-height="682"
     inkscape:window-x="0"
     inkscape:window-y="37"
     inkscape:window-maximized="0"
     inkscape:current-layer="svg2" /><path
     d="M10.5000004,-3.5500001 L10.5000004,-3.2500001 10.8000004,-3.2500001 10.8000004,-3.5500001 10.8000004,-3.5500001 10.8701371,-3.4875001 10.938332,-3.4250001 11.0045815,-3.3625001 11.0688799,-3.3000001 11.1312192,-3.2375001 11.1915893,-3.1750001 11.2499777,-3.1125001 11.3063702,-3.0500001 11.3607502,-2.9875001 11.4130994,-2.9250001 11.4633976,-2.8625001 11.5116232,-2.8000001 11.5577527,-2.7375001 11.6017615,-2.6750001 11.6436234,-2.6125001 11.6833115,-2.5500001 11.7207977,-2.4875001 11.7560535,-2.4250001 11.7890497,-2.3625001 11.8197572,-2.3000001 11.8481466,-2.2375001 11.874189,-2.1750001 11.8978559,-2.1125001 11.9087899,-2.0812501 11.9191199,-2.0500001 11.9288425,-2.0187501 11.9379547,-1.9875001 11.9464534,-1.9562501 11.9543358,-1.9250001 11.9615989,-1.8937501 11.9682402,-1.8625001 11.9742572,-1.8312501 11.9796475,-1.8000001 11.984409,-1.7687501 11.9885399,-1.7375001 11.9920383,-1.7062501 11.9949028,-1.6750001 11.9971321,-1.6437501 11.9987251,-1.6125001 11.9996813,-1.5812501 12.0000001,-1.5500001 11.9996813,-1.5187501 11.9987251,-1.4875001 11.9971321,-1.4562501 11.9949028,-1.425 11.9920383,-1.39375 11.9885399,-1.3625 11.984409,-1.33125 11.9796475,-1.3 11.9742571,-1.26875 11.9682402,-1.2375 11.9615989,-1.20625 11.9543358,-1.175 11.9464534,-1.14375 11.9379547,-1.1125 11.9288425,-1.08125 11.9191199,-1.05 11.9087899,-1.01875 11.8978559,-0.9875 11.874189,-0.925 11.8481466,-0.8625 11.8197572,-0.8 11.7890497,-0.7375 11.7560535,-0.675 11.7207977,-0.6125 11.6833115,-0.55 11.6436234,-0.4875 11.6017615,-0.425 11.5577527,-0.3625 11.5116232,-0.3 11.4633976,-0.2375 11.4130994,-0.175 11.3607502,-0.1125 11.3063702,-0.05 11.2499777,0.0125 11.1915893,0.075 11.1312192,0.1375 11.0688799,0.2 11.0045815,0.2625 10.938332,0.325 10.8701371,0.3875 10.8000004,0.45 10.8000004,0.15 10.5000004,0.15 10.5000004,0.45 9.0000004,0.45 9.0000004,0.15 8.7000003,0.15 8.7000003,0.45 7.5000003,0.45 7.5000003,0.15 7.2000003,0.15 7.2000003,0.45 5.7000003,0.45 5.7000003,0.15 5.4000003,0.15 5.4000003,0.45 3.9000003,0.45 3.9000003,0.15 3.6000003,0.15 3.6000003,0.45 2.1000003,0.45 2.1000003,0.15 1.8000003,0.15 1.8000003,0.45 0.3000003,0.45 0.3000003,0.15 0.0000003,0.15 0.0000003,0.45 -1.4999997,0.45 -1.4999997,0.15 -1.7999997,0.15 -1.7999997,0.45 -1.7999998,0.45 -1.8163797,0.4384979 -1.8321871,0.4274143 -1.8474527,0.4167268 -1.8622055,0.4064145 -1.8902771,0.3868394 -1.9165952,0.368549 -1.9413282,0.351421 -1.9646242,0.3353482 -1.9866133,0.3202362 -2.0074109,0.3060015 -2.0271193,0.29257 -2.0458296,0.2798758 -2.0636232,0.2678598 -2.0805734,0.2564694 -2.0967456,0.2456571 -2.1121993,0.2353801 -2.126988,0.2255997 -2.1411603,0.2162809 -2.1547605,0.207392 -2.1678287,0.1989039 -2.1925133,0.1830272 -2.215473,0.1684655 -2.2369264,0.1550629 -2.2570595,0.1426872 -2.276032,0.1312256 -2.2939819,0.1205814 -2.3110291,0.1106711 -2.3272788,0.1014221 -2.3428236,0.0927714 -2.3577458,0.0846636 -2.372119,0.0770501 -2.3994762,0.063139 -2.425355,0.0507494 -2.4501435,0.0396518 -2.4741794,0.0296619 -2.497767,0.0206298 -2.5211905,0.0124329 -2.5447258,0.0049699 -2.5686514,-0.0018428 -2.5932596,-0.008075 -2.6188686,-0.0137845 -2.6458369,-0.019019 -2.6745812,-0.0238176 -2.6897713,-0.0260634 -2.7056006,-0.0282114 -2.7221493,-0.0302642 -2.7395079,-0.0322241 -2.7577783,-0.0340928 -2.7770764,-0.0358716 -2.7975348,-0.0375613 -2.8193058,-0.039162 -2.8425663,-0.0406732 -2.8675225,-0.0420936 -2.8944168,-0.0434212 -2.9235364,-0.0446529 -2.9390353,-0.0452315 -2.9552243,-0.0457844 -2.9721573,-0.0463108 -2.9898939,-0.0468098 -3.0084999,-0.0472805 -3.0280483,-0.0477216 -3.0486203,-0.0481319 -3.0703065,-0.0485098 -3.0932082,-0.0488536 -3.1174389,-0.0491614 -3.1431269,-0.0494309 -3.1704169,-0.0496595 -3.1994734,-0.0498444 -3.2304836,-0.049982 -3.2636621,-0.0500684 -3.2811402,-0.0500911 -3.2992559,-0.0500992 -3.2992559,-0.3500992 -3.5992559,-0.3500992 -3.5992559,-0.0500992 -3.5992559,-0.0500992 -3.6123615,-0.0771942 -3.6250179,-0.1033129 -3.6372494,-0.1285075 -3.6490786,-0.1528268 -3.6605266,-0.1763161 -3.6716129,-0.1990178 -3.682356,-0.2209711 -3.692773,-0.2422131 -3.7028798,-0.2627782 -3.7126916,-0.2826987 -3.7222224,-0.3020049 -3.7314853,-0.3207252 -3.7492569,-0.3565135 -3.7660971,-0.3902586 -3.7820866,-0.4221338 -3.7972973,-0.4522934 -3.8117934,-0.4808753 -3.8256327,-0.508003 -3.8388668,-0.5337874 -3.8515428,-0.5583288 -3.8637028,-0.5817175 -3.8753854,-0.6040356 -3.8866254,-0.6253574 -3.8974547,-0.6457509 -3.9079024,-0.6652778 -3.9179952,-0.6839947 -3.9277576,-0.7019534 -3.9372121,-0.7192013 -3.9463795,-0.7357824 -3.9552789,-0.7517367 -3.9639282,-0.7671016 -3.9723438,-0.7819114 -3.9885341,-0.8099905 -4.0039603,-0.8362021 -4.0187187,-0.8607434 -4.0328943,-0.8837859 -4.0465621,-0.9054794 -4.0597894,-0.9259557 -4.0726366,-0.9453312 -4.0851584,-0.9637089 -4.0974051,-0.9811809 -4.1094226,-0.9978294 -4.1212541,-1.0137284 -4.1329396,-1.0289449 -4.1445174,-1.0435393 -4.167494,-1.0710788 -4.1904622,-1.0967369 -4.2136912,-1.1208473 -4.2374522,-1.1437023 -4.2620291,-1.1655644 -4.2877295,-1.1866765 -4.3148984,-1.2072715 -4.3439339,-1.2275806 -4.3592954,-1.2377024 -4.3753076,-1.2478438 -4.3920457,-1.2580381 -4.409593,-1.2683203 -4.4280435,-1.2787283 -4.4475027,-1.289303 -4.4680903,-1.3000892 -4.4899428,-1.3111367 -4.5132166,-1.322501 -4.5380921,-1.3342448 -4.564779,-1.3464397 -4.5935219,-1.3591678 -4.6087525,-1.3657611 -4.6246091,-1.3725247 -4.6411361,-1.3794732 -4.6583822,-1.3866225 -4.6764007,-1.3939899 -4.6952499,-1.4015942 -4.7149943,-1.4094562 -4.7357048,-1.4175987 -4.7574601,-1.4260469 -4.7803472,-1.4348287 -4.804463,-1.443975 -4.8299156,-1.4535202 -4.856826,-1.4635027 -4.8853299,-1.4739658 -4.9155804,-1.4849579 -4.9477505,-1.4965337 -4.9820367,-1.5087555 -5.000042,-1.5151304 -5.0186628,-1.521694 -5.0379321,-1.528457 -5.0578855,-1.5354303 -5.0785611,-1.5426262 -5.0999999,-1.5500576 -5.0999999,-1.85 -5.3999999,-1.85 -5.3999999,-1.5500576 -6.8999999,-1.5500576 -6.8999999,-1.85 -7.1999999,-1.85 -7.1999999,-1.5500576 -8.6999999,-1.5500576 -8.6999999,-1.85 -8.9999999,-1.85 -8.9999999,-1.5500576 -10.4999999,-1.5500576 -10.4999999,-1.85 -10.7999999,-1.85 -10.7999999,-1.5500576 -10.7999999,-1.5500576 -10.8701368,-1.6281806 -10.9383318,-1.7063037 -11.0045814,-1.7844269 -11.0688799,-1.86255 -11.1312193,-1.9406732 -11.1915895,-2.0187965 -11.249978,-2.0969197 -11.3063705,-2.175043 -11.3607506,-2.2531663 -11.4130998,-2.3312896 -11.4633981,-2.409413 -11.5116237,-2.4875364 -11.5577533,-2.5656598 -11.6017621,-2.6437833 -11.643624,-2.7219068 -11.6833121,-2.8000303 -11.7207983,-2.8781539 -11.7560541,-2.9562774 -11.7890503,-3.0344011 -11.8197578,-3.1125247 -11.8481472,-3.1906484 -11.8741895,-3.2687721 -11.8978564,-3.3468959 -11.9087904,-3.3859578 -11.9191203,-3.4250197 -11.9288429,-3.4640816 -11.9379551,-3.5031435 -11.9464538,-3.5422054 -11.9543361,-3.5812674 -11.9615992,-3.6203293 -11.9682404,-3.6593913 -11.9742574,-3.6984532 -11.9796477,-3.7375152 -11.9844092,-3.7765772 -11.98854,-3.8156392 -11.9920384,-3.8547012 -11.9949028,-3.8937632 -11.9971321,-3.9328252 -11.9987251,-3.9718872 -11.9996812,-4.0109493 -12,-4.0500113 -11.9996812,-4.0890734 -11.998725,-4.1281354 -11.9971318,-4.1671975 -11.9949025,-4.2062596 -11.992038,-4.2453217 -11.9885396,-4.2843838 -11.9844087,-4.3234459 -11.9796471,-4.362508 -11.9742567,-4.4015701 -11.9682397,-4.4406323 -11.9615984,-4.4796944 -11.9543352,-4.5187566 -11.9464529,-4.5578188 -11.9379541,-4.5968809 -11.9288419,-4.6359431 -11.9191192,-4.6750053 -11.9087892,-4.7140675 -11.8978552,-4.7531297 -11.8741882,-4.8312542 -11.8481458,-4.9093787 -11.8197563,-4.9875032 -11.7890488,-5.0656277 -11.7560525,-5.1437523 -11.7207967,-5.2218769 -11.6833105,-5.3000016 -11.6436224,-5.3781263 -11.6017605,-5.456251 -11.5577517,-5.5343757 -11.5116222,-5.6125005 -11.4633966,-5.6906253 -11.4130984,-5.7687501 -11.3607492,-5.846875 -11.3063693,-5.9249999 -11.2499769,-6.0031248 -11.1915884,-6.0812498 -11.1312184,-6.1593748 -11.0688792,-6.2374998 -11.0045808,-6.3156248 -10.9383314,-6.3937499 -10.8701366,-6.471875 -10.7999999,-6.5500001 -10.7999999,-6.2500001 -10.4999999,-6.2500001 -10.4999999,-6.5500001 -8.9999999,-6.5500001 -8.9999999,-6.2500001 -8.6999999,-6.2500001 -8.6999999,-6.5500001 -7.1999999,-6.5500001 -7.1999999,-6.2500001 -6.8999999,-6.2500001 -6.8999999,-6.5500001 -5.3999999,-6.5500001 -5.3999999,-6.2500001 -5.0999999,-6.2500001 -5.0999999,-6.5500001 -3.5999999,-6.5500001 -3.5999999,-6.2500001 -3.2999999,-6.2500001 -3.2999999,-6.5500001 -1.7999999,-6.5500001 -1.7999999,-6.2500001 -1.4999999,-6.2500001 -1.4999999,-6.5500001 0.0000001,-6.5500001 0.0000001,-6.2500001 0.3000001,-6.2500001 0.3000001,-6.5500001 1.8000001,-6.5500001 1.8000001,-6.2500001 2.1000001,-6.2500001 2.1000001,-6.5500001 2.6500001,-6.5500001 2.6500001,-6.2500001 3.1500001,-6.2500001 3.1500001,-6.5500001 3.6000001,-6.5500001 3.6000001,-6.2500001 3.9000001,-6.2500001 3.9000001,-6.5500001 4.6500001,-6.5500001 4.6500001,-6.2500001 5.1500001,-6.2500001 5.1500001,-6.5500001 5.4000001,-6.5500001 5.4000001,-6.2500001 5.7000001,-6.2500001 5.7000001,-6.5500001 5.7000003,-6.5500001 5.7318313,-6.5385753 5.761519,-6.5278662 5.7892831,-6.5177985 5.8153145,-6.5083074 5.8397797,-6.4993364 5.8628251,-6.490836 5.8845794,-6.4827624 5.9051565,-6.4750768 5.9246575,-6.4677449 5.9431726,-6.4607361 5.9607823,-6.4540229 5.9775588,-6.4475807 5.993567,-6.4413873 6.0088655,-6.4354226 6.0235073,-6.4296685 6.0375405,-6.4241085 6.0639517,-6.4135122 6.0884045,-6.4035283 6.1111547,-6.394068 6.1324185,-6.385056 6.1523799,-6.3764274 6.1711966,-6.3681262 6.1890051,-6.3601035 6.2059242,-6.3523161 6.2220578,-6.3447255 6.2374976,-6.3372973 6.2666129,-6.3228058 6.2938257,-6.3086209 6.3195918,-6.2945504 6.3442962,-6.2804205 6.3682744,-6.2660666 6.4152449,-6.2360354 6.4387963,-6.2200158 6.4627626,-6.2030745 6.4874373,-6.184993 6.5131402,-6.1655181 6.526488,-6.1551666 6.5402323,-6.1443498 6.5544278,-6.1330202 6.5691339,-6.1211252 6.5844166,-6.1086059 6.6003486,-6.0953967 6.6170112,-6.0814233 6.6344957,-6.0666018 6.6529051,-6.0508369 6.6723567,-6.0340195 6.6929845,-6.0160243 6.7149428,-5.9967064 6.7384105,-5.9758975 6.7507743,-5.9648736 6.7635963,-5.9534004 6.7769085,-5.9414478 6.7907456,-5.9289829 6.8051454,-5.9159699 6.8201492,-5.9023694 6.8358023,-5.8881385 6.8521543,-5.87323 6.8692601,-5.8575919 6.8871798,-5.8411667 6.9059802,-5.823891 6.9257352,-5.8056944 6.9465271,-5.7864986 6.9684476,-5.766216 6.9915994,-5.744749 7.0160977,-5.7219876 7.0420722,-5.6978081 7.0696699,-5.6720704 7.0841286,-5.6585685 7.0990572,-5.6446157 7.1144804,-5.6301888 7.1304243,-5.6152627 7.1469169,-5.5998106 7.1639885,-5.5838038 7.1816714,-5.5672113 7.2000003,-5.5500001 7.2000003,-5.2500001 7.5000003,-5.2500001 7.5000003,-5.5500001 7.5000003,-5.5500001 7.5184089,-5.5338783 7.5361595,-5.5183046 7.5532874,-5.5032492 7.5698255,-5.4886845 7.5858045,-5.4745848 7.6012528,-5.4609261 7.6161972,-5.4476859 7.6306624,-5.4348433 7.658247,-5.4102739 7.684176,-5.3870755 7.7085983,-5.3651225 7.7316459,-5.3443039 7.7534356,-5.3245211 7.7740716,-5.3056862 7.793647,-5.2877207 7.8122452,-5.270554 7.8299413,-5.2541228 7.8468029,-5.2383697 7.862891,-5.223243 7.8782612,-5.2086957 7.8929637,-5.194685 7.9070444,-5.1811719 7.9205452,-5.1681207 7.9335042,-5.1554988 7.9459565,-5.1432761 7.9579344,-5.1314251 7.9805829,-5.1087379 8.0016601,-5.0872556 8.021346,-5.0668214 8.0397957,-5.0472997 8.0571432,-5.0285715 8.0735055,-5.0105322 8.0889852,-4.9930886 8.1036725,-4.9761576 8.1176474,-4.9596639 8.1309811,-4.9435393 8.1437375,-4.9277208 8.1677423,-4.8967743 8.19006,-4.8664017 8.211024,-4.8362205 8.2309201,-4.8058709 8.2500003,-4.7750001 8.2684935,-4.7432486 8.2866145,-4.7102363 8.3045729,-4.6755468 8.3135571,-4.6574288 8.322581,-4.6387098 8.3316729,-4.6193188 8.3408628,-4.5991787 8.350182,-4.5782045 8.3596642,-4.5563026 8.3693457,-4.5333689 8.379266,-4.5092873 8.3894683,-4.4839277 8.4000003,-4.4571429 8.4109156,-4.4287664 8.4222741,-4.398608 8.4341438,-4.3664494 8.4402942,-4.3495429 8.4466023,-4.3320389 8.4530797,-4.3138996 8.459739,-4.2950841 8.4665934,-4.2755479 8.4736576,-4.255243 8.4809473,-4.2341171 8.4884796,-4.2121133 8.4962731,-4.1891694 8.5043482,-4.1652175 8.512727,-4.1401831 8.5214339,-4.1139846 8.5304958,-4.086532 8.539942,-4.057726 8.5498053,-4.0274569 8.5601216,-3.9956028 8.5709313,-3.9620283 8.5822788,-3.9265823 8.5942144,-3.8890958 8.6004199,-3.8695288 8.606794,-3.8493787 8.6133449,-3.8286179 8.620081,-3.8072172 8.6270117,-3.7851454 8.6341467,-3.7623694 8.6414965,-3.7388537 8.6490721,-3.7145606 8.6568857,-3.6894496 8.6649497,-3.6634775 8.6732781,-3.6365981 8.6818853,-3.6087616 8.6907871,-3.5799147 8.7000003,-3.5500001 8.7000003,-3.2500001 9.0000004,-3.2500001 9.0000004,-3.5500001 10.5000004,-3.5500001z"
     transform="matrix(1,0,0,-1,12,0.45)"
     fill="rgb(0,0,0)"
     stroke-linecap="round"
     stroke-linejoin="round"
     id="path1"
     style="fill:none;stroke:#ff0000;stroke-opacity:1;stroke-width:0.001;stroke-dasharray:none" /><path
     d="M-10.5281435,-2.1500576 L-4.9991492,-2.1500576 -4.9991492,-2.1500576 -4.9156041,-2.1211558 -4.8735497,-2.1065806 -4.8532405,-2.099505 -4.8335422,-2.0926158 -4.7958967,-2.0793703 -4.7604487,-2.0667912 -4.7270339,-2.0548257 -4.6954878,-2.0434208 -4.665646,-2.0325238 -4.6373441,-2.0220818 -4.6104178,-2.0120418 -4.5847025,-2.0023511 -4.5600338,-1.9929568 -4.5362628,-1.983811 -4.5133458,-1.974899 -4.4912477,-1.9662078 -4.4699287,-1.9577227 -4.4493489,-1.9494293 -4.4294685,-1.9413129 -4.4102476,-1.9333589 -4.3736248,-1.9178799 -4.3391619,-1.9028756 -4.3065399,-1.8882294 -4.2754402,-1.8738244 -4.2455438,-1.8595442 -4.2165688,-1.8452789 -4.18845,-1.8309766 -4.1611472,-1.8166091 -4.1346146,-1.8021479 -4.1088062,-1.7875644 -4.0836763,-1.7728301 -4.0591789,-1.7579165 -4.011898,-1.7274372 -3.9665967,-1.6958985 -3.9229078,-1.663072 -3.8806846,-1.6288641 -3.8401595,-1.5934318 -3.8012137,-1.5567346 -3.7637142,-1.5187235 -3.7275276,-1.4793495 -3.692521,-1.4385634 -3.6585612,-1.3963164 -3.6255149,-1.3525598 -3.5931534,-1.3072261 -3.5770706,-1.2837687 -3.5609575,-1.2596295 -3.5447424,-1.2346924 -3.5283535,-1.2088413 -3.5117193,-1.1819601 -3.4947679,-1.1539327 -3.4774277,-1.124643 -3.459627,-1.0939749 -3.441294,-1.0618123 -3.4223488,-1.0280139 -3.4026308,-0.992248 -3.3924186,-0.9734967 -3.3819371,-0.9540968 -3.371161,-0.933996 -3.3600647,-0.9131421 -3.3486229,-0.8914827 -3.3368103,-0.8689656 -3.3246013,-0.8455385 -3.3119708,-0.8211492 -3.2988931,-0.7957454 -3.2853309,-0.7692487 -3.2712213,-0.7415249 -3.2565163,-0.7124708 -3.2411685,-0.6819852 -3.2251307,-0.6499666 -3.2251307,-0.6499666 -3.1947998,-0.6498293 -3.1661709,-0.6496494 -3.1391221,-0.6494284 -3.113531,-0.6491677 -3.0892755,-0.6488688 -3.0662335,-0.6485332 -3.0442828,-0.6481623 -3.0233012,-0.6477577 -3.0031666,-0.6473208 -2.9837572,-0.646853 -2.965001,-0.6463561 -2.9468753,-0.64583 -2.9124006,-0.6446888 -2.8801035,-0.6434258 -2.8497541,-0.6420377 -2.8211228,-0.6405209 -2.7939798,-0.6388719 -2.7680953,-0.6370874 -2.7432397,-0.6351639 -2.7191833,-0.6330978 -2.6727327,-0.6285078 -2.6281918,-0.62323 -2.5853086,-0.6172062 -2.5438221,-0.6103805 -2.5034712,-0.6026973 -2.4639948,-0.5941007 -2.425132,-0.584535 -2.3866216,-0.5739444 -2.3484234,-0.5623238 -2.3107608,-0.5497226 -2.2734887,-0.5361012 -2.2364523,-0.5214176 -2.1994965,-0.5056295 -2.1624662,-0.488695 -2.1252065,-0.4705721 -2.0875623,-0.4512186 -2.0493649,-0.4305966 -2.0100763,-0.4084491 -1.9897399,-0.3966263 -1.9687886,-0.3842064 -1.947107,-0.3711161 -1.9245798,-0.357282 -1.9010918,-0.3426309 -1.8765277,-0.3270896 -1.8507729,-0.3105851 -1.8236897,-0.2930249 -1.7949285,-0.2741603 -1.7797908,-0.2641476 -1.7640799,-0.2536995 -1.7477448,-0.2427794 -1.7307343,-0.2313508 -1.7129972,-0.2193774 -1.6944823,-0.2068226 -1.6751384,-0.1936499 -1.6549143,-0.179823 -1.6337529,-0.1653011 -1.6115382,-0.15 10.5677058,-0.15 10.5677058,-0.15 10.6215196,-0.2016819 10.6735533,-0.2531033 10.7237997,-0.3042354 10.7722513,-0.3550496 10.818901,-0.4055173 10.8637413,-0.4556098 10.906765,-0.5052985 10.9479646,-0.5545548 10.987333,-0.60335 11.0248628,-0.6516554 11.0605466,-0.6994425 11.0943772,-0.7466826 11.1263472,-0.793347 11.1564494,-0.8394071 11.1846763,-0.8848343 11.2110206,-0.9296 11.2354752,-0.9736754 11.2580447,-1.0169636 11.2787681,-1.0594097 11.2976891,-1.1010462 11.3148512,-1.1419057 11.3302984,-1.1820205 11.3440742,-1.2214233 11.3562224,-1.2601464 11.3667866,-1.2982224 11.3758106,-1.3356838 11.3833381,-1.372563 11.3894128,-1.4088926 11.3940783,-1.444705 11.3973824,-1.4800448 11.3994153,-1.5151635 11.4001746,-1.5502196 11.3996272,-1.5853036 11.39774,-1.620506 11.3944798,-1.655917 11.3898135,-1.6916273 11.3837079,-1.7277273 11.37613,-1.7643074 11.3670466,-1.8014581 11.3564246,-1.8392698 11.3442308,-1.8778329 11.3304321,-1.917238 11.3149323,-1.9575223 11.2976263,-1.9986287 11.2785104,-2.0405288 11.257581,-2.0831942 11.2348349,-2.126597 11.2102689,-2.1707089 11.1838795,-2.2155019 11.1556635,-2.2609476 11.1256176,-2.3070181 11.0937385,-2.3536851 11.0600228,-2.4009205 11.0244673,-2.4486962 10.9870686,-2.496984 10.9478235,-2.5457557 10.9067285,-2.5949832 10.8637805,-2.6446383 10.8189761,-2.694693 10.772312,-2.7451189 10.7238233,-2.7958859 10.6735525,-2.8469687 10.6215099,-2.8983469 10.5677058,-2.9500001 8.2568556,-2.9500001 8.2568556,-2.9500001 8.1810414,-3.1963959 8.1431344,-3.3195939 8.1242145,-3.3810819 8.1150714,-3.4107552 8.1062371,-3.439371 8.0976996,-3.4669699 8.0894469,-3.4935924 8.0814671,-3.5192792 8.0737482,-3.5440708 8.0662783,-3.5680078 8.0590455,-3.5911308 8.0520378,-3.6134803 8.0452432,-3.635097 8.0386498,-3.6560214 8.0322456,-3.6762942 8.0199573,-3.715047 8.0082945,-3.7516395 7.9972164,-3.7862102 7.9866895,-3.8188732 7.9766803,-3.8497425 7.9671552,-3.8789324 7.9580805,-3.9065569 7.9494229,-3.9327303 7.9411487,-3.9575667 7.9332242,-3.9811803 7.9256161,-4.0036851 7.9182908,-4.025195 7.911225,-4.045789 7.9044089,-4.0655012 7.8978327,-4.0843649 7.891487,-4.1024135 7.885362,-4.1196805 7.8794481,-4.1361991 7.8737357,-4.1520029 7.8682152,-4.1671252 7.862877,-4.1815993 7.8577114,-4.1954587 7.8527088,-4.2087367 7.8431541,-4.2336823 7.8341361,-4.2567032 7.8255776,-4.2780664 7.8174168,-4.2980123 7.809654,-4.3166257 7.8022616,-4.333984 7.7952076,-4.35017 7.7884597,-4.3652668 7.7819859,-4.3793574 7.775754,-4.3925245 7.7697319,-4.4048512 7.7638875,-4.4164205 7.7581887,-4.4273153 7.7526033,-4.4376184 7.7416444,-4.4567818 7.7307538,-4.4745742 7.7081598,-4.5086771 7.6959445,-4.525997 7.6823897,-4.5441829 7.6748879,-4.553804 7.6667848,-4.5638855 7.6579916,-4.5745089 7.6484195,-4.5857553 7.6379798,-4.5977061 7.6265835,-4.6104427 7.614142,-4.6240464 7.6005665,-4.6385984 7.5857681,-4.65418 7.5696688,-4.6708588 7.5521351,-4.6887248 7.5427314,-4.6981839 7.5328472,-4.7080401 7.5224404,-4.7183281 7.511469,-4.7290828 7.4998912,-4.740339 7.4876649,-4.7521313 7.474748,-4.7644947 7.4610987,-4.7774638 7.446675,-4.7910735 7.4314348,-4.8053586 7.4153362,-4.8203537 7.3983373,-4.8360938 7.3803959,-4.8526136 7.3614314,-4.8699809 7.341298,-4.888318 7.3198926,-4.9077106 7.2971136,-4.9282432 7.2728591,-4.9500001 6.9623895,-4.9500001 6.9623895,-4.9500001 6.8116551,-5.0915933 6.7743197,-5.1266605 6.7565055,-5.1433785 6.7393243,-5.1594904 6.7227471,-5.1750238 6.7067449,-5.1900063 6.6912888,-5.2044656 6.6763498,-5.2184294 6.6618989,-5.2319252 6.6479072,-5.2449808 6.6211757,-5.2698911 6.5959857,-5.2933222 6.5722448,-5.3153621 6.5498616,-5.3360982 6.5287447,-5.3556177 6.5088026,-5.374008 6.489944,-5.3913562 6.4720773,-5.4077497 6.4551112,-5.4232757 6.4389542,-5.4380215 6.4235149,-5.4520743 6.4087245,-5.4654999 6.3945639,-5.4783163 6.381007,-5.4905487 6.3680273,-5.5022223 6.3555986,-5.5133624 6.3436943,-5.5239941 6.3322881,-5.5341429 6.3213537,-5.5438339 6.3007944,-5.5619437 6.2818053,-5.5785256 6.2641753,-5.5937817 6.2476943,-5.6079133 6.2322217,-5.6210599 6.2177008,-5.6332776 6.2040745,-5.6446202 6.1912858,-5.6551412 6.1792776,-5.6648942 6.1679928,-5.6739331 6.1573745,-5.6823112 6.1473656,-5.6900824 6.137909,-5.6973003 6.1289478,-5.7040185 6.1122829,-5.7161703 6.0969147,-5.7269671 6.0824148,-5.7368238 6.0686518,-5.7459412 6.0415193,-5.7628504 6.0270757,-5.7711484 6.0113309,-5.7796794 5.9937478,-5.7886965 5.9840992,-5.7934665 5.9737895,-5.7984529 5.9627517,-5.8036873 5.9509187,-5.8092015 5.9382361,-5.8150183 5.9246303,-5.8211456 5.909875,-5.827656 5.8937289,-5.8346291 5.8759511,-5.8421449 5.8563003,-5.8502834 5.8345354,-5.8591243 5.8227849,-5.8638332 5.8104155,-5.8687477 5.797397,-5.8738777 5.7836993,-5.8792333 5.7692923,-5.8848244 5.7541459,-5.890661 5.7382178,-5.8967565 5.7214018,-5.9031465 5.7035756,-5.9098725 5.684617,-5.9169763 5.6644036,-5.9244993 5.6428131,-5.9324832 5.6197234,-5.9409696 5.5950121,-5.9500001 -10.5281384,-5.9500001 -10.5281384,-5.9500001 -10.5823227,-5.8847745 -10.6348144,-5.8197878 -10.6856062,-5.7550573 -10.7346908,-5.6906001 -10.7820608,-5.6264335 -10.827709,-5.5625748 -10.8716278,-5.4990411 -10.9138102,-5.4358497 -10.9542486,-5.3730178 -10.9929358,-5.3105627 -11.0298644,-5.2485016 -11.0650271,-5.1868518 -11.0984166,-5.1256304 -11.1300255,-5.0648547 -11.1598466,-5.0045419 -11.1878724,-4.9447093 -11.2140965,-4.8853908 -11.2385246,-4.8266591 -11.261171,-4.7684941 -11.2820501,-4.7108652 -11.3011763,-4.6537418 -11.318564,-4.5970935 -11.3342277,-4.5408896 -11.3481818,-4.4850997 -11.3604407,-4.4296931 -11.3710189,-4.3746393 -11.3799307,-4.3199078 -11.3871907,-4.265468 -11.3928133,-4.2112894 -11.3968128,-4.1573414 -11.3992038,-4.1035934 -11.4000007,-4.0500064 -11.3992132,-3.9963771 -11.3968306,-3.9426044 -11.3928383,-3.8886534 -11.3872219,-3.8344893 -11.3799669,-3.7800773 -11.3710587,-3.7253825 -11.3604828,-3.67037 -11.3482249,-3.6150051 -11.3342702,-3.5592528 -11.3186045,-3.5030784 -11.301213,-3.446447 -11.2820815,-3.3893237 -11.2611953,-3.3316737 -11.23854,-3.2734621 -11.2141006,-3.2146581 -11.1878604,-3.1553163 -11.1598215,-3.0954787 -11.1299909,-3.0351624 -11.0983754,-2.9743845 -11.0649822,-2.9131621 -11.0298181,-2.8515124 -10.9928903,-2.7894525 -10.9542058,-2.7269994 -10.9137714,-2.6641704 -10.8715942,-2.6009825 -10.8276812,-2.5374528 -10.7820395,-2.4735986 -10.7346759,-2.4094369 -10.6855975,-2.3449848 -10.6348113,-2.2802594 -10.5823243,-2.215278 -10.5281435,-2.1500576z"
     transform="matrix(1,0,0,-1,12,0.45)"
     fill="rgb(255,255,255)"
     stroke="rgb(0,0,0)"
     stroke-width="0.0010cm"
     stroke-linecap="round"
     stroke-linejoin="round"
     id="path2"
     style="fill:none;stroke:#ff0000;stroke-opacity:1;stroke-width:0.001;stroke-dasharray:none" /></svg>
