<?xml version="1.0" encoding="UTF-8" standalone="no"?>
<!-- Generator: Fusion 360, Shaper Origin Export Add-In, Version 1.8.0  -->

<svg
   shaper:fusionaddin="version:1.8.0"
   width="6.5cm"
   height="3cm"
   version="1.1"
   x="0cm"
   y="0cm"
   viewBox="0 0 6.5 3"
   enable-background="new 0 0 6.5 3"
   xml:space="preserve"
   id="svg1"
   sodipodi:docname="middleToBackFrame.svg"
   inkscape:version="1.4 (e7c3feb1, 2024-10-09)"
   xmlns:inkscape="http://www.inkscape.org/namespaces/inkscape"
   xmlns:sodipodi="http://sodipodi.sourceforge.net/DTD/sodipodi-0.dtd"
   xmlns="http://www.w3.org/2000/svg"
   xmlns:svg="http://www.w3.org/2000/svg"
   xmlns:shaper="http://www.shapertools.com/namespaces/shaper"><defs
     id="defs1" /><sodipodi:namedview
     id="namedview1"
     pagecolor="#ffffff"
     bordercolor="#000000"
     borderopacity="0.25"
     inkscape:showpageshadow="2"
     inkscape:pageopacity="0.0"
     inkscape:pagecheckerboard="0"
     inkscape:deskcolor="#d1d1d1"
     inkscape:document-units="cm"
     inkscape:zoom="1.2971481"
     inkscape:cx="116.79468"
     inkscape:cy="39.317022"
     inkscape:window-width="1472"
     inkscape:window-height="759"
     inkscape:window-x="0"
     inkscape:window-y="37"
     inkscape:window-maximized="0"
     inkscape:current-layer="svg1" /><path
     d="M-3.25,2.85 L-3.25,0.35 A0.5,0.5 180 0,1 -2.75,-0.15 L0.75,-0.15 A2.5,2.5 270 0,1 3.25,2.35 L3.25,2.85 2.95,2.85 2.95,2.7 2.8,2.7 2.8,2.6 2.95,2.6 2.95,2.3500153 A2.2,2.2 0.0003978 0,0 0.7493478,0.1500001 L-2.7500068,0.15 A0.2,0.2 269.9980625 0,0 -2.95,0.3499841 L-2.95,2.6 -2.8,2.6 -2.8,2.7 -2.9500001,2.7 -2.95,2.85 -3.25,2.85z"
     transform="matrix(1,0,0,-1,3.25,2.85)"
     fill="rgb(0,0,0)"
     stroke-linecap="round"
     stroke-linejoin="round"
     id="path1"
     style="fill:none;stroke:#ff0000;stroke-opacity:1;stroke-width:0.001;stroke-dasharray:none" /></svg>
