<?xml version="1.0" encoding="UTF-8" standalone="no"?>
<!-- Generator: Fusion 360, Shaper Origin Export Add-In, Version 1.8.0  -->

<svg
   shaper:fusionaddin="version:1.8.0"
   width="6.7241215cm"
   height="5.5cm"
   version="1.1"
   x="0cm"
   y="0cm"
   viewBox="0 0 6.7241215 5.5"
   enable-background="new 0 0 6.7241215 5.5"
   xml:space="preserve"
   id="svg1"
   sodipodi:docname="middleRudder.svg"
   inkscape:version="1.4 (e7c3feb1, 2024-10-09)"
   xmlns:inkscape="http://www.inkscape.org/namespaces/inkscape"
   xmlns:sodipodi="http://sodipodi.sourceforge.net/DTD/sodipodi-0.dtd"
   xmlns="http://www.w3.org/2000/svg"
   xmlns:svg="http://www.w3.org/2000/svg"
   xmlns:shaper="http://www.shapertools.com/namespaces/shaper"><defs
     id="defs1" /><sodipodi:namedview
     id="namedview1"
     pagecolor="#ffffff"
     bordercolor="#000000"
     borderopacity="0.25"
     inkscape:showpageshadow="2"
     inkscape:pageopacity="0.0"
     inkscape:pagecheckerboard="0"
     inkscape:deskcolor="#d1d1d1"
     inkscape:document-units="cm"
     inkscape:zoom="0.12507576"
     inkscape:cx="123.92489"
     inkscape:cy="99.939431"
     inkscape:window-width="1296"
     inkscape:window-height="494"
     inkscape:window-x="0"
     inkscape:window-y="37"
     inkscape:window-maximized="0"
     inkscape:current-layer="svg1" /><path
     d="M1.0183443,3.8235642 L1.0183443,3.8235642 0.9835066,3.7759614 0.9492942,3.7292301 0.9156897,3.6833464 0.8826765,3.6382872 0.8502386,3.59403 0.8183604,3.5505534 0.7870269,3.5078366 0.7562238,3.4658595 0.7259371,3.4246029 0.6961534,3.3840481 0.6668597,3.344177 0.6380435,3.3049722 0.6096926,3.2664168 0.5817952,3.2284947 0.5543402,3.19119 0.5273164,3.1544876 0.5007134,3.1183726 0.4745208,3.0828309 0.4487286,3.0478486 0.4233273,3.0134124 0.3983076,2.9795094 0.3736604,2.946127 0.3493769,2.913253 0.3254487,2.8808757 0.2786255,2.8175659 0.2331279,2.7561102 0.1888966,2.6964266 0.145876,2.6384376 0.1040134,2.5820704 0.0632592,2.5272559 0.0235665,2.4739293 -0.015109,2.422029 -0.0528093,2.3714968 -0.0895741,2.3222778 -0.125441,2.2743196 -0.1604458,2.227573 -0.1946222,2.1819908 -0.2280025,2.1375286 -0.2606172,2.094144 -0.2924954,2.0517968 -0.3236649,2.0104487 -0.3541518,1.9700631 -0.3839813,1.9306054 -0.4131774,1.8920425 -0.4417629,1.8543428 -0.4697595,1.8174761 -0.497188,1.7814138 -0.5240684,1.7461284 -0.5504197,1.7115936 -0.57626,1.6777843 -0.6016068,1.6446764 -0.6264766,1.6122471 -0.6508856,1.5804742 -0.674849,1.5493367 -0.6983814,1.5188144 -0.721497,1.4888878 -0.7442093,1.4595384 -0.7665313,1.4307482 -0.7884754,1.4025002 -0.8100537,1.3747778 -0.8312777,1.3475652 -0.8521586,1.3208472 -0.8929331,1.2688369 -0.9324581,1.218636 -0.9708088,1.1701419 -1.0080551,1.1232592 -1.0442623,1.0778991 -1.0794911,1.0339788 -1.1137985,0.9914214 -1.1472379,0.9501546 -1.1798592,0.9101111 -1.2117094,0.8712278 -1.2428328,0.8334454 -1.273271,0.7967084 -1.3030633,0.7609644 -1.332247,0.7261643 -1.3608573,0.6922617 -1.3889276,0.6592128 -1.4164896,0.6269763 -1.4435735,0.595513 -1.470208,0.564786 -1.4964207,0.5347601 -1.5222378,0.505402 -1.5476844,0.4766801 -1.5727847,0.4485642 -1.5975619,0.4210256 -1.6220384,0.394037 -1.6701745,0.341606 -1.7173576,0.2910753 -1.7637423,0.242265 -1.8094757,0.1950086 -1.8546987,0.1491513 -1.8995477,0.1045486 -1.9441557,0.0610642 -1.9886537,0.0185691 -2.0331723,-0.02306 -2.0778425,-0.0639419 -2.1227974,-0.1041917 -2.1681732,-0.1439222 -2.2141109,-0.1832449 -2.2607577,-0.2222712 -2.3082686,-0.2611132 -2.3568082,-0.2998852 -2.406553,-0.3387048 -2.4576935,-0.3776942 -2.5104372,-0.416982 -2.5650112,-0.4567045 -2.6216665,-0.4970081 -2.6508605,-0.5174268 -2.680682,-0.5380512 -2.7111709,-0.5589036 -2.7423699,-0.5800072 -2.7743243,-0.6013865 -2.807082,-0.6230674 -2.8406947,-0.6450772 -2.8752171,-0.6674451 -2.9107081,-0.6902017 -2.9472306,-0.7133801 -2.9848523,-0.7370152 -3.023646,-0.7611445 -3.0636899,-0.7858084 -3.1050689,-0.81105 -3.1478743,-0.8369158 -3.1922055,-0.8634562 -3.2381702,-0.8907256 -3.2858854,-0.9187827 -3.335479,-0.9476918 -3.3870905,-0.9775227 -3.4137001,-0.9928074 -3.4408726,-1.0083517 -3.4686294,-1.0241662 -3.496993,-1.0402622 -3.525987,-1.0566514 -3.5556362,-1.073346 -3.5859666,-1.090359 -3.6170055,-1.107704 -3.6487819,-1.1253952 -3.6813259,-1.1434477 -3.7146697,-1.1618772 -3.7488467,-1.1807004 -3.7838927,-1.1999349 -3.8198451,-1.2195991 -3.8567437,-1.2397128 -3.8946304,-1.2602965 -3.9335495,-1.2813723 -3.9735483,-1.3029632 -4.0146765,-1.3250939 -4.0569871,-1.3477904 -4.1005364,-1.3710804 -4.1453842,-1.3949934 -4.1915941,-1.4195607 -4.2392341,-1.4448156 -4.2883763,-1.4707937 -4.3390981,-1.4975329 -4.3914819,-1.5250738 -4.4456161,-1.5534597 -4.5015953,-1.5827372 -4.5595209,-1.612956 -4.619502,-1.6441697 -4.6502996,-1.6601675 -4.6816557,-1.6764358 1.0183443,-1.6764358 2.0424659,3.8235642 1.0183443,3.8235642z"
     transform="matrix(1,0,0,-1,4.6816557,3.8235642)"
     fill="rgb(0,0,0)"
     stroke-linecap="round"
     stroke-linejoin="round"
     id="path1"
     style="fill:none;stroke:#ff0000;stroke-opacity:1;stroke-width:0.001;stroke-dasharray:none" /></svg>
