<?xml version="1.0" encoding="UTF-8" standalone="no"?>
<!-- Generator: Fusion 360, Shaper Origin Export Add-In, Version 1.8.0  -->

<svg
   shaper:fusionaddin="version:1.8.0"
   width="7cm"
   height="3cm"
   version="1.1"
   x="0cm"
   y="0cm"
   viewBox="0 0 7 3"
   enable-background="new 0 0 7 3"
   xml:space="preserve"
   id="svg1"
   sodipodi:docname="middleFrame.svg"
   inkscape:version="1.4 (e7c3feb1, 2024-10-09)"
   xmlns:inkscape="http://www.inkscape.org/namespaces/inkscape"
   xmlns:sodipodi="http://sodipodi.sourceforge.net/DTD/sodipodi-0.dtd"
   xmlns="http://www.w3.org/2000/svg"
   xmlns:svg="http://www.w3.org/2000/svg"
   xmlns:shaper="http://www.shapertools.com/namespaces/shaper"><defs
     id="defs1" /><sodipodi:namedview
     id="namedview1"
     pagecolor="#ffffff"
     bordercolor="#000000"
     borderopacity="0.25"
     inkscape:showpageshadow="2"
     inkscape:pageopacity="0.0"
     inkscape:pagecheckerboard="0"
     inkscape:deskcolor="#d1d1d1"
     inkscape:document-units="cm"
     inkscape:zoom="1.8344444"
     inkscape:cx="138.7341"
     inkscape:cy="68.140521"
     inkscape:window-width="1472"
     inkscape:window-height="783"
     inkscape:window-x="0"
     inkscape:window-y="37"
     inkscape:window-maximized="0"
     inkscape:current-layer="svg1" /><path
     d="M-3.2,-2.6 L-3.2,-1.35 A1.2,1.2 180 0,0 -2,-0.15 L3,-0.15 A0.2,0.2 90 0,0 3.2,-0.35 L3.2,-2.6 3.05,-2.6 3.05,-2.7 3.2000001,-2.7 3.2000001,-2.85 3.5,-2.85 3.5,-0.35 A0.5,0.5 0 0,1 3,0.15 L-2,0.15 A1.5,1.5 90 0,1 -3.5,-1.35 L-3.5,-2.85 -3.2,-2.85 -3.2,-2.7 -3.05,-2.7 -3.05,-2.6 -3.2,-2.6z"
     transform="matrix(1,0,0,-1,3.5,0.15)"
     fill="rgb(0,0,0)"
     stroke-linecap="round"
     stroke-linejoin="round"
     id="path1"
     style="fill:none;stroke:#ff0000;stroke-opacity:1;stroke-width:0.001;stroke-dasharray:none" /></svg>
