<?xml version="1.0" encoding="UTF-8" standalone="no"?>
<!-- Generator: Fusion 360, Shaper Origin Export Add-In, Version 1.8.0  -->

<svg
   shaper:fusionaddin="version:1.8.0"
   width="6.8779763cm"
   height="5.6036826cm"
   version="1.1"
   x="0cm"
   y="0cm"
   viewBox="0 0 6.8779763 5.6036826"
   enable-background="new 0 0 6.8779763 5.6036826"
   xml:space="preserve"
   id="svg1"
   sodipodi:docname="outerRudder.svg"
   inkscape:version="1.4 (e7c3feb1, 2024-10-09)"
   xmlns:inkscape="http://www.inkscape.org/namespaces/inkscape"
   xmlns:sodipodi="http://sodipodi.sourceforge.net/DTD/sodipodi-0.dtd"
   xmlns="http://www.w3.org/2000/svg"
   xmlns:svg="http://www.w3.org/2000/svg"
   xmlns:shaper="http://www.shapertools.com/namespaces/shaper"><defs
     id="defs1" /><sodipodi:namedview
     id="namedview1"
     pagecolor="#ffffff"
     bordercolor="#000000"
     borderopacity="0.25"
     inkscape:showpageshadow="2"
     inkscape:pageopacity="0.0"
     inkscape:pagecheckerboard="0"
     inkscape:deskcolor="#d1d1d1"
     inkscape:document-units="cm"
     inkscape:zoom="0.12276153"
     inkscape:cx="126.26105"
     inkscape:cy="101.82343"
     inkscape:window-width="1232"
     inkscape:window-height="490"
     inkscape:window-x="0"
     inkscape:window-y="37"
     inkscape:window-maximized="0"
     inkscape:current-layer="svg1" /><path
     d="M2.321226,-3.9725626 L2.6161566,-3.9176453 2.3415704,-2.442992 2.0466397,-2.4979093 1.9917225,-2.2029786 2.2866532,-2.1480613 2.0120669,-0.673408 1.7171363,-0.7283253 1.662219,-0.4333946 1.9571497,-0.3784774 1.6825635,1.096176 1.3876328,1.0412588 1.3327156,1.3361894 -4.2618197,1.3361894 -4.0743466,0.3293732 -4.0743466,0.3293732 -4.0211708,0.3038382 -3.9689664,0.2787584 -3.9177065,0.2541212 -3.8673653,0.2299143 -3.817918,0.2061261 -3.7693405,0.1827452 -3.7216097,0.1597609 -3.6747032,0.1371625 -3.6285996,0.1149399 -3.5832779,0.0930834 -3.5387181,0.0715834 -3.4949007,0.0504308 -3.451807,0.0296168 -3.4094189,0.0091328 -3.3677187,-0.0110294 -3.3266895,-0.0308779 -3.286315,-0.0504203 -3.2465791,-0.0696642 -3.2074665,-0.0886167 -3.1689623,-0.107285 -3.1310521,-0.1256757 -3.0937219,-0.1437956 -3.0569582,-0.1616509 -3.0207477,-0.1792478 -2.9499364,-0.2136905 -2.8811905,-0.2471694 -2.8144185,-0.2797277 -2.7495342,-0.3114061 -2.6864561,-0.3422428 -2.6251076,-0.3722742 -2.565416,-0.4015343 -2.5073128,-0.4300556 -2.4507332,-0.4578685 -2.3956158,-0.4850021 -2.3419024,-0.5114839 -2.2895377,-0.5373398 -2.2384696,-0.5625946 -2.1886482,-0.5872717 -2.1400263,-0.6113934 -2.0925591,-0.634981 -2.0462039,-0.6580546 -2.0009199,-0.6806335 -1.9566684,-0.702736 -1.9134126,-0.7243795 -1.8711171,-0.7455807 -1.8297484,-0.7663555 -1.7892745,-0.7867191 -1.7496647,-0.806686 -1.7108896,-0.8262701 -1.6729213,-0.8454848 -1.635733,-0.8643426 -1.5992991,-0.8828558 -1.5635948,-0.901036 -1.5285968,-0.9188945 -1.4942825,-0.9364419 -1.4606301,-0.9536886 -1.4276189,-0.9706445 -1.3952291,-0.987319 -1.3634413,-1.0037214 -1.3322373,-1.0198603 -1.3015994,-1.0357442 -1.2715105,-1.0513813 -1.2129149,-1.0819459 -1.156327,-1.1116134 -1.1016319,-1.1404388 -1.0487232,-1.1684735 -0.9975016,-1.1957653 -0.9478746,-1.2223589 -0.899756,-1.2482962 -0.8530652,-1.2736163 -0.8077268,-1.2983561 -0.7636701,-1.3225503 -0.7208288,-1.3462314 -0.6791406,-1.3694302 -0.638547,-1.392176 -0.5989926,-1.4144961 -0.5604255,-1.4364168 -0.5227966,-1.4579629 -0.4860594,-1.4791581 -0.4501698,-1.5000247 -0.4150864,-1.5205844 -0.3807695,-1.5408576 -0.3471815,-1.5608642 -0.3142867,-1.5806231 -0.2820511,-1.6001524 -0.2504422,-1.6194698 -0.219429,-1.6385922 -0.1590723,-1.6763171 -0.1007583,-1.7134529 -0.0442817,-1.7501187 0.0105481,-1.7864286 0.0639089,-1.822493 0.1159678,-1.8584192 0.1668832,-1.8943133 0.216806,-1.9302804 0.2658812,-1.9664262 0.3142494,-2.0028578 0.3620484,-2.039685 0.4094139,-2.0770211 0.4564814,-2.1149843 0.5033873,-2.1536988 0.5502702,-2.1932965 0.5972725,-2.2339184 0.6445423,-2.2757164 0.6922346,-2.3188555 0.7405136,-2.363516 0.7895551,-2.4098963 0.8395488,-2.4582163 0.8649667,-2.4831793 0.8907016,-2.5087214 0.9167829,-2.534878 0.9432411,-2.5616866 0.9701086,-2.5891873 0.9974197,-2.6174227 1.0252107,-2.6464383 1.0535201,-2.6762828 1.0823891,-2.7070083 1.1118615,-2.7386707 1.1419842,-2.7713301 1.1728073,-2.8050511 1.2043847,-2.8399035 1.2367745,-2.8759626 1.2700391,-2.9133098 1.3042462,-2.9520335 1.3394689,-2.9922296 1.3757866,-3.0340025 1.4132857,-3.077466 1.4520604,-3.1227446 1.4719579,-3.1461066 1.4922136,-3.1699744 1.512842,-3.1943672 1.5338582,-3.2193051 1.555278,-3.244809 1.577118,-3.2709011 1.5993958,-3.2976046 1.6221296,-3.3249439 1.6453387,-3.3529448 1.6690436,-3.3816343 1.6932655,-3.4110409 1.718027,-3.4411948 1.7433519,-3.4721275 1.7692652,-3.5038728 1.7957936,-3.5364659 1.8229649,-3.5699443 1.850809,-3.6043477 1.8793571,-3.6397182 1.9086427,-3.6761002 1.9387009,-3.7135412 1.9695694,-3.7520912 2.0012881,-3.7918037 2.0338993,-3.8327356 2.0674483,-3.8749474 2.1019832,-3.9185038 2.1375556,-3.9634736 2.1742204,-4.0099307 2.2120363,-4.0579539 2.2510665,-4.1076277 2.2913785,-4.1590428 2.3330447,-4.2122964 2.3544098,-4.2396451 2.3761432,-4.2674932 2.321226,-3.9725626z"
     transform="matrix(1,0,0,-1,4.2618197,1.3361894)"
     fill="rgb(0,0,0)"
     stroke-linecap="round"
     stroke-linejoin="round"
     id="path1"
     style="stroke:#ff0000;fill:none;fill-opacity:1;stroke-opacity:1;stroke-width:0.001;stroke-dasharray:none" /></svg>
