<?xml version="1.0" encoding="utf-8"?>
<!-- Generator: Fusion 360, Shaper Origin Export Add-In, Version 1.8.0  -->
<svg xmlns="http://www.w3.org/2000/svg" xmlns:xlink="http://www.w3.org/1999/xlink" xmlns:shaper="http://www.shapertools.com/namespaces/shaper" shaper:fusionaddin="version:1.8.0" width="7.0632251cm" height="1.0989677cm" version="1.1" x="0cm" y="0cm" viewBox="0 0 7.0632251 1.0989677" enable-background="new 0 0 7.0632251 1.0989677" xml:space="preserve"><path d="M-3.5316126,-0.2508564 L-3.3683875,-0.2508564 -3.3683875,-0.5508564 -3.1183875,-0.5508564 -3.1183875,-0.2508564 -2.6183875,-0.2508564 -2.6183875,-0.5508564 -1.8683875,-0.5508564 -1.8683875,-0.2508564 -1.5683875,-0.2508564 -1.5683875,-0.5508564 -1.1183874,-0.5508564 -1.1183874,-0.2508564 -0.6183874,-0.2508564 -0.6183874,-0.5508564 -0.0683874,-0.5508564 -0.0683874,-0.2585568 0.2316126,-0.2585568 0.2316126,-0.5508564 1.7316126,-0.5508564 1.7316126,-0.2508564 2.0316126,-0.2508564 2.0316126,-0.5508564 3.5316126,-0.5508564 3.5316126,-0.4500609 3.5316126,-0.4500609 3.3544057,-0.3999965 3.1787889,-0.351049 3.0047679,-0.3032225 2.8323501,-0.256522 2.6615447,-0.2109541 2.4923625,-0.1665263 2.3248164,-0.1232478 2.1589211,-0.0811287 1.994693,-0.0401808 1.8321505,-0.0004168 1.6713138,0.038149 1.5122048,0.0755012 1.3548475,0.1116231 1.1992674,0.1464966 1.0454919,0.1801026 0.8935502,0.2124204 0.7434731,0.2434286 0.595293,0.2731044 0.4490438,0.3014237 0.3766545,0.315067 0.3047613,0.3283618 0.233369,0.3413047 0.1624823,0.3538925 0.0921061,0.3661217 0.0222452,0.3779889 -0.0470952,0.3894906 -0.1159103,0.4006232 -0.1841947,0.4113832 -0.2519434,0.4217668 -0.3191511,0.4317705 -0.3858125,0.4413904 -0.4519222,0.4506227 -0.5174748,0.4594638 -0.5824649,0.4679098 -0.6468871,0.4759568 -0.7107356,0.483601 -0.7740051,0.4908384 -0.83669,0.4976651 -0.8987845,0.5040772 -0.9602833,0.5100708 -1.0211805,0.5156419 -1.0814706,0.5207866 -1.141148,0.5255009 -1.2002071,0.5297808 -1.2586422,0.5336225 -1.3164477,0.537022 -1.3736182,0.5399754 -1.430148,0.5424787 -1.4860316,0.5445283 -1.5412636,0.5461201 -1.5958386,0.5472503 -1.6497511,0.5479153 -1.702996,0.5481113 -1.7555679,0.5478346 -1.8074617,0.5470817 -1.8586726,0.545849 -1.9091954,0.544133 -1.9590255,0.5419305 -2.0081583,0.5392381 -2.0565891,0.5360527 -2.1043137,0.5323712 -2.1513279,0.5281908 -2.1976276,0.5235085 -2.2432091,0.5183217 -2.2880688,0.5126279 -2.3322032,0.5064246 -2.3756091,0.4997097 -2.4182836,0.492481 -2.4602238,0.4847365 -2.5014273,0.4764745 -2.5418916,0.4676934 -2.5816149,0.4583917 -2.6205951,0.4485681 -2.6588309,0.4382216 -2.6963209,0.4273513 -2.733064,0.4159563 -2.7690596,0.4040363 -2.8043072,0.3915908 -2.8388065,0.3786198 -2.8725577,0.3651233 -2.905561,0.3511015 -2.937817,0.3365547 -2.9693263,0.3214835 -3.0000901,0.3058886 -3.0301092,0.2897707 -3.059385,0.2731306 -3.0879189,0.2559694 -3.1157123,0.2382881 -3.142767,0.2200879 -3.1690845,0.2013699 -3.1946668,0.1821355 -3.2195157,0.1623859 -3.2436329,0.1421225 -3.2670206,0.1213465 -3.2896806,0.1000594 -3.3116149,0.0782627 -3.3328255,0.0559575 -3.3533145,0.0331455 -3.3730837,0.009828 -3.3921353,-0.0139937 -3.410471,-0.0383181 -3.428093,-0.0631439 -3.4450031,-0.0884698 -3.4612031,-0.1142944 -3.4766948,-0.1406165 -3.49148,-0.1674349 -3.5055603,-0.1947484 -3.5189373,-0.2225559 -3.5316126,-0.2508564z" transform="matrix(1,0,0,-1,3.5316126,0.5481113)" fill="rgb(0,0,0)" stroke-linecap="round" stroke-linejoin="round" /></svg>