<?xml version="1.0" encoding="UTF-8" standalone="no"?>
<!-- Generator: Fusion 360, Shaper Origin Export Add-In, Version 1.8.0  -->

<svg
   shaper:fusionaddin="version:1.8.0"
   width="7.5cm"
   height="1.0989062cm"
   version="1.1"
   x="0cm"
   y="0cm"
   viewBox="0 0 7.5 1.0989062"
   enable-background="new 0 0 7.5 1.0989062"
   xml:space="preserve"
   id="svg1"
   sodipodi:docname="partWing.svg"
   inkscape:version="1.4 (e7c3feb1, 2024-10-09)"
   xmlns:inkscape="http://www.inkscape.org/namespaces/inkscape"
   xmlns:sodipodi="http://sodipodi.sourceforge.net/DTD/sodipodi-0.dtd"
   xmlns="http://www.w3.org/2000/svg"
   xmlns:svg="http://www.w3.org/2000/svg"
   xmlns:shaper="http://www.shapertools.com/namespaces/shaper"><defs
     id="defs1" /><sodipodi:namedview
     id="namedview1"
     pagecolor="#ffffff"
     bordercolor="#000000"
     borderopacity="0.25"
     inkscape:showpageshadow="2"
     inkscape:pageopacity="0.0"
     inkscape:pagecheckerboard="0"
     inkscape:deskcolor="#d1d1d1"
     inkscape:document-units="cm"
     inkscape:zoom="0.62600128"
     inkscape:cx="141.37351"
     inkscape:cy="20.766731"
     inkscape:window-width="1376"
     inkscape:window-height="657"
     inkscape:window-x="0"
     inkscape:window-y="37"
     inkscape:window-maximized="0"
     inkscape:current-layer="svg1" /><path
     d="M-0.75,-0.5508564 L3.75,-0.5508564 3.75,-0.5508564 3.5506386,-0.4931367 3.3532159,-0.4367788 3.1577355,-0.3817852 2.9642035,-0.3281602 2.7726284,-0.2759097 2.6775782,-0.2503024 2.5830217,-0.2250418 2.4889606,-0.2001293 2.3953971,-0.1755662 2.3023333,-0.1513541 2.2097714,-0.1274946 2.1177142,-0.1039896 2.0261641,-0.0808408 1.9351242,-0.0580503 1.8445974,-0.0356203 1.7545869,-0.0135529 1.6650962,0.0081494 1.5761288,0.0294842 1.4876883,0.0504487 1.3997788,0.0710404 1.3124042,0.0912563 1.2255688,0.1110935 1.139277,0.1305488 1.0535333,0.1496192 0.9683426,0.1683011 0.8837096,0.1865913 0.7996395,0.2044861 0.7161374,0.221982 0.6332087,0.239075 0.5508589,0.2557615 0.4690937,0.2720373 0.3879189,0.2878985 0.3073404,0.3033407 0.2273643,0.3183599 0.1479968,0.3329515 0.0692444,0.3471111 -0.0088866,0.3608342 -0.0863894,0.3741162 -0.1632575,0.3869522 -0.2394839,0.3993375 -0.3150617,0.4112673 -0.389984,0.4227366 -0.4642435,0.4337404 -0.5378332,0.4442736 -0.6107456,0.4543312 -0.6829736,0.463908 -0.7545097,0.4729988 -0.8253464,0.4815984 -0.8954762,0.4897014 -0.9648917,0.4973027 -1.0335851,0.5043968 -1.101549,0.5109784 -1.1687757,0.5170423 -1.2352576,0.522583 -1.3009871,0.5275952 -1.3659566,0.5320736 -1.4301585,0.5360128 -1.4935853,0.5394076 -1.5562294,0.5422526 -1.6180834,0.5445426 -1.6791399,0.5462725 -1.7393916,0.547437 -1.7988311,0.5480311 -1.8574514,0.5480498 -1.9152455,0.5474881 -1.9722065,0.5463412 -2.0283276,0.5446044 -2.0836024,0.5422731 -2.1380246,0.539343 -2.1915879,0.5358096 -2.2442866,0.5316688 -2.296115,0.5269168 -2.3470678,0.5215497 -2.3971398,0.515564 -2.4463263,0.5089563 -2.4946229,0.5017234 -2.5420253,0.4938625 -2.5885298,0.4853709 -2.6341329,0.4762462 -2.6788314,0.466486 -2.7226226,0.4560886 -2.765504,0.4450521 -2.8074738,0.4333753 -2.8485303,0.421057 -2.8886722,0.4080963 -2.9278989,0.3944927 -2.9662099,0.3802459 -3.0036054,0.365356 -3.0400855,0.3498233 -3.0756512,0.3336481 -3.1103034,0.3168314 -3.1440434,0.2993739 -3.1768728,0.2812768 -3.2087934,0.2625414 -3.2398071,0.2431689 -3.2699162,0.223161 -3.2991228,0.2025193 -3.3274295,0.1812453 -3.3548387,0.159341 -3.3813529,0.1368081 -3.4069748,0.1136484 -3.4317072,0.0898639 -3.4555525,0.0654563 -3.4785137,0.0404276 -3.5005933,0.0147798 -3.521794,-0.0114854 -3.5421186,-0.038366 -3.5615696,-0.0658602 -3.5801496,-0.0939662 -3.5978612,-0.1226822 -3.6147066,-0.1520066 -3.6306882,-0.1819377 -3.6458082,-0.212474 -3.6600688,-0.243614 -3.6734718,-0.2753564 -3.686019,-0.3076999 -3.697712,-0.3406434 -3.7085524,-0.3741858 -3.7185412,-0.4083263 -3.7276797,-0.4430641 -3.7359687,-0.4783986 -3.7434086,-0.5143295 -3.75,-0.5508564 -3.25,-0.5508564 -3.25,-0.2508564 -2.75,-0.2508564 -2.75,-0.5508564 -1.25,-0.5508564 -1.25,-0.2508564 -0.75,-0.2508564 -0.75,-0.5508564z"
     transform="matrix(1,0,0,-1,3.75,0.5480498)"
     fill="rgb(0,0,0)"
     stroke-linecap="round"
     stroke-linejoin="round"
     id="path1"
     style="fill:none;stroke:#ff0000;stroke-opacity:1;stroke-width:0.001;stroke-dasharray:none" /></svg>
