<?xml version="1.0" encoding="UTF-8" standalone="no"?>
<!-- Generator: Fusion 360, Shaper Origin Export Add-In, Version 1.8.0  -->

<svg
   shaper:fusionaddin="version:1.8.0"
   width="6.7132251cm"
   height="1.0989661cm"
   version="1.1"
   x="0cm"
   y="0cm"
   viewBox="0 0 6.7132251 1.0989661"
   enable-background="new 0 0 6.7132251 1.0989661"
   xml:space="preserve"
   id="svg1"
   sodipodi:docname="partWingMiddle.svg"
   inkscape:version="1.4 (e7c3feb1, 2024-10-09)"
   xmlns:inkscape="http://www.inkscape.org/namespaces/inkscape"
   xmlns:sodipodi="http://sodipodi.sourceforge.net/DTD/sodipodi-0.dtd"
   xmlns="http://www.w3.org/2000/svg"
   xmlns:svg="http://www.w3.org/2000/svg"
   xmlns:shaper="http://www.shapertools.com/namespaces/shaper"><defs
     id="defs1" /><sodipodi:namedview
     id="namedview1"
     pagecolor="#ffffff"
     bordercolor="#000000"
     borderopacity="0.25"
     inkscape:showpageshadow="2"
     inkscape:pageopacity="0.0"
     inkscape:pagecheckerboard="0"
     inkscape:deskcolor="#d1d1d1"
     inkscape:document-units="cm"
     inkscape:zoom="0.91041828"
     inkscape:cx="60.96099"
     inkscape:cy="-48.878632"
     inkscape:window-width="1312"
     inkscape:window-height="516"
     inkscape:window-x="0"
     inkscape:window-y="37"
     inkscape:window-maximized="0"
     inkscape:current-layer="svg1" /><path
     d="M2.2066126,-0.5508564 L3.3566126,-0.5508564 3.3566126,-0.3518307 3.3566126,-0.3518307 3.1879368,-0.3054522 3.0207659,-0.2601308 2.8551083,-0.2158722 2.6909736,-0.1726835 2.5283734,-0.1305725 2.3673207,-0.0895485 2.2078302,-0.0496218 2.0499182,-0.0108039 1.8936028,0.0268926 1.7389033,0.063454 1.5858411,0.0988654 1.4344388,0.1331108 1.2847208,0.1661732 1.136713,0.1980344 0.9904427,0.228675 0.8459389,0.258075 0.7032316,0.2862129 0.5623526,0.3130668 0.4233347,0.3386133 0.2862121,0.3628285 0.1510203,0.3856876 0.0841598,0.3966006 0.0177956,0.4071649 -0.0480674,0.4173773 -0.1134245,0.4272343 -0.178271,0.4367326 -0.2426019,0.4458687 -0.3064124,0.4546394 -0.3696975,0.463041 -0.4324523,0.4710701 -0.4946717,0.4787231 -0.5563508,0.4859966 -0.6174844,0.492887 -0.6780676,0.4993907 -0.7380951,0.5055041 -0.7975619,0.5112237 -0.8564628,0.5165458 -0.9147928,0.5214669 -0.9725468,0.5259834 -1.0297196,0.5300916 -1.0863061,0.5337881 -1.1423012,0.5370691 -1.1976999,0.5399312 -1.2524972,0.5423709 -1.3066879,0.5443845 -1.3602672,0.5459687 -1.4132302,0.5471199 -1.4655718,0.5478347 -1.5172873,0.5481097 -1.568372,0.5479416 -1.6188211,0.5473271 -1.6686301,0.5462629 -1.7177944,0.544746 -1.7663098,0.5427732 -1.8141718,0.5403415 -1.8613765,0.537448 -1.9079197,0.5340899 -1.9537975,0.5302645 -1.9990064,0.5259692 -2.0435427,0.5212014 -2.0874029,0.5159589 -2.1305841,0.5102392 -2.1730829,0.5040404 -2.2148968,0.4973604 -2.2560229,0.4901973 -2.2964588,0.4825495 -2.3362024,0.4744153 -2.3752515,0.4657932 -2.4136043,0.4566822 -2.4512592,0.4470809 -2.4882148,0.4369884 -2.52447,0.426404 -2.560024,0.415327 -2.5948759,0.4037569 -2.6290255,0.3916934 -2.6624725,0.3791365 -2.6952171,0.3660861 -2.7272593,0.3525425 -2.7585998,0.3385059 -2.7892392,0.3239769 -2.8191783,0.3089559 -2.848418,0.2934437 -2.8769595,0.2774411 -2.9048039,0.2609489 -2.9319528,0.243968 -2.9584074,0.2264996 -2.9841694,0.2085446 -3.0092403,0.1901042 -3.0336218,0.1711795 -3.0573156,0.1517718 -3.0803234,0.1318823 -3.1026471,0.1115123 -3.1242884,0.0906629 -3.1452491,0.0693355 -3.165531,0.0475313 -3.185136,0.0252516 -3.2040659,0.0024977 -3.2223225,-0.0207292 -3.2399074,-0.0444278 -3.2568226,-0.0685968 -3.2730698,-0.0932351 -3.2886505,-0.1183415 -3.3035664,-0.1439148 -3.3178191,-0.169954 -3.3314101,-0.196458 -3.3443408,-0.2234258 -3.3566126,-0.2508564 -3.1933875,-0.2508564 -3.1933875,-0.5508564 -2.9433875,-0.5508564 -2.9433875,-0.2508564 -2.4433875,-0.2508564 -2.4433875,-0.5508564 -1.6933875,-0.5508564 -1.6933875,-0.2508564 -1.3933875,-0.2508564 -1.3933875,-0.5508564 -0.9433874,-0.5508564 -0.9433874,-0.2508564 -0.4433874,-0.2508564 -0.4433874,-0.5508564 0.1066126,-0.5508564 0.1066126,-0.2585568 0.4066126,-0.2585568 0.4066126,-0.5508564 1.9066126,-0.5508564 1.9066126,-0.2508564 2.2066126,-0.2508564 2.2066126,-0.5508564z"
     transform="matrix(1,0,0,-1,3.3566126,0.5481097)"
     fill="rgb(0,0,0)"
     stroke-linecap="round"
     stroke-linejoin="round"
     id="path1"
     style="fill:none;stroke:#ff0000;stroke-opacity:1;stroke-width:0.001;stroke-dasharray:none" /></svg>
